# Maro bind pose, skeleton15 slot order (util/skeleton15.gd); bones copied from fixtures/foxgirl
v -6.128138e-16 0.9509752 0.01875306
v 1.572339e-14 1.152718 0.01880949
v -5.464329e-10 1.451581 -0.0150308
v 0.09571601 1.354802 -0.01459859
v 0.3201603 1.187557 0.001882542
v 0.5032596 1.041353 0.01272275
v -0.09571605 1.354802 -0.01459859
v -0.5032597 1.041352 0.01272277
v -0.3201604 1.187557 0.001882551
v 0.09722869 0.9077847 0.02652065
v 0.09724841 0.4993472 0.01758098
v 0.09724838 0.06940625 -0.01178804
v -0.09722869 0.9077847 0.02652065
v -0.09724841 0.4993472 0.01758098
v -0.09724838 0.06940625 -0.01178805
l 1 2
l 2 3
l 2 4
l 4 5
l 5 6
l 2 7
l 7 9
l 8 9
l 1 10
l 10 11
l 11 12
l 1 13
l 13 14
l 14 15
