#usda 1.0
(
    customLayerData = {
        string dataset = "V-Sekai/datasource-cassie data/raw_data"
        string dataset_rev = "ed6870db441ece00701979db67190972deeff59b"
        string rule = "group split (participant, or named subject), seeded shuffle, 60/20/20; seen sketches stay in train"
        int seed = 20260925
        string[] seen = ["dress", "flower", "hat", "vintage_car"]
        string withheld = "test"
    }
    defaultPrim = "Splits"
    metersPerUnit = 1
    upAxis = "Y"
)

def Scope "Splits"
{
    def Scope "train"
    {
        custom string[] blake3 = ["298a22be0561", "f9da43badc10", "75fbc28cccb5", "93573922e422", "81aaea3a6f51", "4f62a9d14224", "e5640807cdc9", "27dfcb4a40ec", "96a8866da045", "8da1eebc8e06", "e7b17975a201", "5dc5a98e11fc", "eea46eadad25", "0fa73efda7b2", "7fd1e4c4bbd7", "036e548a30b8", "3e55d6253032", "bb519b6192bf", "e572ebe69bbf", "80944d25d826", "a21802695e22", "4c0ff111b84b", "a642e25a6db3", "9b548b94eabf", "2177b00d7d22", "a88dc9c3823b", "32dd754fa2dc", "642d5c7c3a94", "70609794d390", "b9da0a19ce7d", "66ba920e0fed", "ecfac45209bc", "700f74840c8f", "dd825363536d", "ec3c0e5d4dfe", "8f14edfdaf11", "28dbad22a382", "8f14edfdaf11", "f5779079b232", "51d546b4a214", "2ee05a67dfec", "f66cd46c8be6", "2519fbadd2ea"]
        custom string[] files = ["03-0-1", "03-0-2", "03-1-1", "03-1-2", "03-2-1", "03-2-2", "05-0-1", "05-0-2", "05-1-1", "05-1-2", "05-2-1", "05-2-2", "08-0-1", "08-0-2", "08-1-1", "08-1-2", "08-2-1", "08-2-2", "11-0-1", "11-0-2", "11-1-1", "11-1-2", "11-2-1", "11-2-2", "12-0-1", "12-0-2", "12-1-1", "12-1-2", "12-2-1", "12-2-2", "architecture", "architecture-2", "computer-mouse", "dress", "flower", "hat", "hmd_sutherland", "large_hat", "monster_head", "sewing-machine", "shield", "vacuum", "vintage_car"]
        custom int groups = 16
    }

    def Scope "validation"
    {
        custom string[] blake3 = ["375c96fb12cd", "d9842f19375e", "6f3338109f27", "2dca140e51d9", "ebf550285ba0", "b4aafc3365f7", "dcbe728480cd", "6fd4663e50e1", "9091b5dc6ff4", "c3b84c724121", "34b88b77f307", "4bf5dc9014aa", "eef5c8ab5925", "f5d18cd9da01", "0933002ee313", "e07999b85b19", "355bd86e0b94", "9b8420b3dfb7", "acdda01d3d50", "aa6d3cd83e32"]
        custom string[] files = ["02-0-1", "02-0-2", "02-1-1", "02-1-2", "02-2-1", "02-2-2", "06-0-1", "06-0-2", "06-1-1", "06-1-2", "06-2-1", "06-2-2", "09-0-1", "09-0-2", "09-1-1", "09-1-2", "09-2-1", "09-2-2", "chair", "teapot"]
        custom int groups = 5
    }

    def Scope "test"
    {
        custom string[] blake3 = ["6160fe6ba243", "9a3d423b85c8", "9f84d37906b5", "d50185caefd1", "48b0fa35f252", "57e6e3a31e3c", "6d6347598917", "31dd55486895", "c3bd2625ee70", "fff526440d07", "71f377f6824a", "6c77430a9b6c", "42c0012fabcb", "fae5d59f8583", "9d97cd25ecfb", "0307a6455335", "a9b65d2543ab", "de73da9c21b0", "1af7144f828b", "84b93f5b8bbd", "7ba7610a0254", "70f76a2eee75", "6f5c026756ad", "c11f6b00730d", "56d1f8f0cbdb", "b597adacbbe9"]
        custom string[] files = ["01-0-1", "01-0-2", "01-1-1", "01-1-2", "01-2-1", "01-2-2", "04-0-1", "04-0-2", "04-1-1", "04-1-2", "04-2-1", "04-2-2", "07-0-1", "07-0-2", "07-1-1", "07-1-2", "07-2-1", "07-2-2", "10-0-1", "10-0-2", "10-1-1", "10-1-2", "10-2-1", "10-2-2", "guitar", "hmd_modern"]
        custom int groups = 6
    }
}

