#usda 1.0
(
    customLayerData = {
        bool body_snap = 0
        string converter = "transport-meshing-pen tools/cassie_raw_usd.py"
        string crossings = "curvenet"
        string expected = '{"strokes": 153, "cycles": 190, "openings": 0}'
        string expected_source = "the session's patches alive at the end found by CASSIE's own cycle detection (foundByAlgo)"
        string flip = "z"
        double mirror_x = 0.125
        int patches_alive = 202
        string source = "dress.json"
        string source_blake3 = "dd825363536d"
        string source_folder = "raw_data"
        string source_rev = "ed6870d"
        string stop_after = "AUTHOR"
        int strokes_deleted = 46
        int strokes_drawn = 126
    }
    defaultPrim = "Creation"
    metersPerUnit = 1
    upAxis = "Y"
)

def Xform "Creation"
{
    def BasisCurves "stroke_002"
    {
        int[] curveVertexCounts = [9]
        point3f[] points = [(0.11216322, 1.3799938, -0.12366918), (0.08579776, 1.3775687, -0.129019), (0.07129735, 1.3785881, -0.13586591), (0.060245693, 1.3824135, -0.14314088), (0.04385957, 1.3944023, -0.15787968), (0.029465035, 1.4113802, -0.17911547), (0.023759812, 1.4235245, -0.19488195), (0.021714568, 1.4366051, -0.21418421), (0.026645973, 1.4489484, -0.23201054)]
        uniform token type = "linear"
    }

    def BasisCurves "stroke_002_mirror"
    {
        int[] curveVertexCounts = [9]
        point3f[] points = [(0.13783678, 1.3799938, -0.12366918), (0.16420224, 1.3775687, -0.129019), (0.17870265, 1.3785881, -0.13586591), (0.1897543, 1.3824135, -0.14314088), (0.20614043, 1.3944023, -0.15787968), (0.22053497, 1.4113802, -0.17911547), (0.22624019, 1.4235245, -0.19488195), (0.22828543, 1.4366051, -0.21418421), (0.22335403, 1.4489484, -0.23201054)]
        uniform token type = "linear"
    }

    def BasisCurves "stroke_004"
    {
        int[] curveVertexCounts = [9]
        point3f[] points = [(0.029298328, 1.4529938, -0.22796768), (0.02969575, 1.4627718, -0.2433092), (0.031223059, 1.4700317, -0.26833785), (0.033178017, 1.468895, -0.28735852), (0.037676185, 1.4596056, -0.3082219), (0.040636986, 1.4502757, -0.31698298), (0.043193817, 1.4399614, -0.32071844), (0.05089265, 1.4053433, -0.31441402), (0.05536732, 1.3829355, -0.31390345)]
        uniform token type = "linear"
    }

    def BasisCurves "stroke_004_mirror"
    {
        int[] curveVertexCounts = [9]
        point3f[] points = [(0.22070166, 1.4529938, -0.22796768), (0.22030425, 1.4627718, -0.2433092), (0.21877694, 1.4700317, -0.26833785), (0.21682198, 1.468895, -0.28735852), (0.21232381, 1.4596056, -0.3082219), (0.20936301, 1.4502757, -0.31698298), (0.20680618, 1.4399614, -0.32071844), (0.19910735, 1.4053433, -0.31441402), (0.19463268, 1.3829355, -0.31390345)]
        uniform token type = "linear"
    }

    def BasisCurves "stroke_006"
    {
        int[] curveVertexCounts = [6]
        point3f[] points = [(0.12122818, 1.3739812, -0.11667454), (0.12361026, 1.355522, -0.10063335), (0.122988954, 1.3365792, -0.09514046), (0.119273506, 1.2965841, -0.101108946), (0.11947584, 1.2792604, -0.10828161), (0.11924356, 1.2698644, -0.11606155)]
        uniform token type = "linear"
    }

    def BasisCurves "stroke_008"
    {
        int[] curveVertexCounts = [8]
        point3f[] points = [(0.11830531, 1.2720942, -0.121990055), (0.115457214, 1.2593327, -0.1347679), (0.1116461, 1.2402157, -0.14721987), (0.11107314, 1.2106693, -0.16064033), (0.11308425, 1.1858991, -0.16728707), (0.11699964, 1.146227, -0.16702424), (0.11870616, 1.1237377, -0.15876932), (0.118046194, 1.1085496, -0.14970079)]
        uniform token type = "linear"
    }

    def BasisCurves "stroke_012"
    {
        int[] curveVertexCounts = [6]
        point3f[] points = [(0.0032697986, 1.4246585, -0.20354696), (0.018528713, 1.3877648, -0.17399849), (0.022070186, 1.3625233, -0.16048592), (0.02336125, 1.3430898, -0.15331118), (0.022404173, 1.3239803, -0.149236), (0.015436413, 1.2889234, -0.14909895)]
        uniform token type = "linear"
    }

    def BasisCurves "stroke_012_mirror"
    {
        int[] curveVertexCounts = [6]
        point3f[] points = [(0.24673021, 1.4246585, -0.20354696), (0.23147129, 1.3877648, -0.17399849), (0.22792982, 1.3625233, -0.16048592), (0.22663875, 1.3430898, -0.15331118), (0.22759582, 1.3239803, -0.149236), (0.23456359, 1.2889234, -0.14909895)]
        uniform token type = "linear"
    }

    def BasisCurves "stroke_014"
    {
        int[] curveVertexCounts = [4]
        point3f[] points = [(0.11541642, 1.27538, -0.11539728), (0.09583507, 1.2763397, -0.11594977), (0.05270292, 1.2813002, -0.12671737), (0.01926088, 1.2898457, -0.14820015)]
        uniform token type = "linear"
    }

    def BasisCurves "stroke_014_mirror"
    {
        int[] curveVertexCounts = [4]
        point3f[] points = [(0.13458358, 1.27538, -0.11539728), (0.15416493, 1.2763397, -0.11594977), (0.19729708, 1.2813002, -0.12671737), (0.23073912, 1.2898457, -0.14820015)]
        uniform token type = "linear"
    }

    def BasisCurves "stroke_018"
    {
        int[] curveVertexCounts = [9]
        point3f[] points = [(-0.0042107627, 1.4272492, -0.20265384), (-0.0013554381, 1.441857, -0.21977934), (-0.0004437606, 1.4522808, -0.23765887), (0.0006423224, 1.4566684, -0.25482464), (0.0018061079, 1.4566755, -0.27108335), (0.003774427, 1.4530008, -0.28007406), (0.007963689, 1.441546, -0.2895248), (0.011289509, 1.4294437, -0.29170087), (0.014200674, 1.4105618, -0.28925097)]
        uniform token type = "linear"
    }

    def BasisCurves "stroke_018_mirror"
    {
        int[] curveVertexCounts = [9]
        point3f[] points = [(0.25421077, 1.4272492, -0.20265384), (0.25135544, 1.441857, -0.21977934), (0.25044376, 1.4522808, -0.23765887), (0.24935767, 1.4566684, -0.25482464), (0.24819389, 1.4566755, -0.27108335), (0.24622557, 1.4530008, -0.28007406), (0.24203631, 1.441546, -0.2895248), (0.2387105, 1.4294437, -0.29170087), (0.23579933, 1.4105618, -0.28925097)]
        uniform token type = "linear"
    }

    def BasisCurves "stroke_022"
    {
        int[] curveVertexCounts = [3]
        point3f[] points = [(-0.0026215313, 1.4566274, -0.25326106), (0.009920255, 1.4659157, -0.25967583), (0.031312026, 1.4751047, -0.26961195)]
        uniform token type = "linear"
    }

    def BasisCurves "stroke_022_mirror"
    {
        int[] curveVertexCounts = [3]
        point3f[] points = [(0.25262153, 1.4566274, -0.25326106), (0.24007975, 1.4659157, -0.25967583), (0.21868797, 1.4751047, -0.26961195)]
        uniform token type = "linear"
    }

    def BasisCurves "stroke_024"
    {
        int[] curveVertexCounts = [9]
        point3f[] points = [(0.0038951105, 1.3860434, -0.18505251), (0.00074695493, 1.3620604, -0.18795352), (-0.0007277227, 1.3329753, -0.20300183), (-0.000043786025, 1.318906, -0.21805508), (0.002995102, 1.3158685, -0.23893495), (0.004668221, 1.3259664, -0.2563206), (0.0047583063, 1.3416996, -0.26821262), (0.0014075013, 1.3731216, -0.2780483), (0.0006038263, 1.4005653, -0.282327)]
        uniform token type = "linear"
    }

    def BasisCurves "stroke_024_mirror"
    {
        int[] curveVertexCounts = [9]
        point3f[] points = [(0.2461049, 1.3860434, -0.18505251), (0.24925305, 1.3620604, -0.18795352), (0.2507277, 1.3329753, -0.20300183), (0.25004378, 1.318906, -0.21805508), (0.2470049, 1.3158685, -0.23893495), (0.24533178, 1.3259664, -0.2563206), (0.24524169, 1.3416996, -0.26821262), (0.2485925, 1.3731216, -0.2780483), (0.24939618, 1.4005653, -0.282327)]
        uniform token type = "linear"
    }

    def BasisCurves "stroke_026"
    {
        int[] curveVertexCounts = [6]
        point3f[] points = [(-0.0029692913, 1.3216499, -0.22233897), (-0.0045514195, 1.2863227, -0.2205392), (0.011455219, 1.2400199, -0.21396436), (0.014358355, 1.1931865, -0.20928015), (0.0029383819, 1.1644912, -0.20329405), (-0.029884718, 1.1243796, -0.19077973)]
        uniform token type = "linear"
    }

    def BasisCurves "stroke_026_mirror"
    {
        int[] curveVertexCounts = [6]
        point3f[] points = [(0.2529693, 1.3216499, -0.22233897), (0.2545514, 1.2863227, -0.2205392), (0.23854478, 1.2400199, -0.21396436), (0.23564164, 1.1931865, -0.20928015), (0.24706163, 1.1644912, -0.20329405), (0.27988473, 1.1243796, -0.19077973)]
        uniform token type = "linear"
    }

    def BasisCurves "stroke_028"
    {
        int[] curveVertexCounts = [5]
        point3f[] points = [(0.11353858, 1.1262877, -0.11572653), (0.07001745, 1.1219724, -0.1157196), (0.030988513, 1.122728, -0.13336225), (-0.0013845634, 1.127902, -0.16487008), (-0.026846284, 1.1322017, -0.20892029)]
        uniform token type = "linear"
    }

    def BasisCurves "stroke_028_mirror"
    {
        int[] curveVertexCounts = [5]
        point3f[] points = [(0.13646142, 1.1262877, -0.11572653), (0.17998254, 1.1219724, -0.1157196), (0.21901149, 1.122728, -0.13336225), (0.25138456, 1.127902, -0.16487008), (0.2768463, 1.1322017, -0.20892029)]
        uniform token type = "linear"
    }

    def BasisCurves "stroke_032"
    {
        int[] curveVertexCounts = [9]
        point3f[] points = [(0.012557461, 1.2906563, -0.14332658), (0.014594154, 1.2727721, -0.1490729), (0.019547325, 1.2360941, -0.17632967), (0.023957081, 1.2129939, -0.18619686), (0.025454266, 1.1977906, -0.18793711), (0.025996804, 1.1813174, -0.1859245), (0.023548765, 1.1669645, -0.18044014), (0.014310985, 1.146338, -0.16329974), (0.008780516, 1.1312205, -0.14631383)]
        uniform token type = "linear"
    }

    def BasisCurves "stroke_032_mirror"
    {
        int[] curveVertexCounts = [9]
        point3f[] points = [(0.23744254, 1.2906563, -0.14332658), (0.23540585, 1.2727721, -0.1490729), (0.23045267, 1.2360941, -0.17632967), (0.22604293, 1.2129939, -0.18619686), (0.22454573, 1.1977906, -0.18793711), (0.2240032, 1.1813174, -0.1859245), (0.22645123, 1.1669645, -0.18044014), (0.23568901, 1.146338, -0.16329974), (0.24121949, 1.1312205, -0.14631383)]
        uniform token type = "linear"
    }

    def BasisCurves "stroke_034"
    {
        int[] curveVertexCounts = [6]
        point3f[] points = [(0.11520013, 1.1845729, -0.14352064), (0.073837645, 1.1877466, -0.149873), (0.045815017, 1.1865071, -0.16134425), (0.03187631, 1.1884228, -0.17361721), (0.017447708, 1.1916639, -0.19328076), (0.011676369, 1.1970669, -0.2135542)]
        uniform token type = "linear"
    }

    def BasisCurves "stroke_034_mirror"
    {
        int[] curveVertexCounts = [6]
        point3f[] points = [(0.13479987, 1.1845729, -0.14352064), (0.17616235, 1.1877466, -0.149873), (0.20418498, 1.1865071, -0.16134425), (0.21812369, 1.1884228, -0.17361721), (0.23255229, 1.1916639, -0.19328076), (0.23832363, 1.1970669, -0.2135542)]
        uniform token type = "linear"
    }

    def BasisCurves "stroke_036"
    {
        int[] curveVertexCounts = [5]
        point3f[] points = [(0.01141043, 1.1999861, -0.22866812), (0.022648739, 1.2077278, -0.25321382), (0.043192517, 1.2115604, -0.26942295), (0.07893254, 1.211982, -0.27950397), (0.11300857, 1.2077838, -0.27966535)]
        uniform token type = "linear"
    }

    def BasisCurves "stroke_036_mirror"
    {
        int[] curveVertexCounts = [5]
        point3f[] points = [(0.23858957, 1.1999861, -0.22866812), (0.22735126, 1.2077278, -0.25321382), (0.20680748, 1.2115604, -0.26942295), (0.17106746, 1.211982, -0.27950397), (0.13699143, 1.2077838, -0.27966535)]
        uniform token type = "linear"
    }

    def BasisCurves "stroke_038"
    {
        int[] curveVertexCounts = [7]
        point3f[] points = [(0.048440404, 1.3884153, -0.3094885), (0.0502708, 1.3668008, -0.30545622), (0.056926344, 1.3391633, -0.30284837), (0.0735657, 1.3056031, -0.30111858), (0.093236715, 1.2919312, -0.2979493), (0.1109655, 1.290972, -0.2959519), (0.12872338, 1.2951065, -0.29812118)]
        uniform token type = "linear"
    }

    def BasisCurves "stroke_038_mirror"
    {
        int[] curveVertexCounts = [7]
        point3f[] points = [(0.2015596, 1.3884153, -0.3094885), (0.1997292, 1.3668008, -0.30545622), (0.19307366, 1.3391633, -0.30284837), (0.1764343, 1.3056031, -0.30111858), (0.15676329, 1.2919312, -0.2979493), (0.1390345, 1.290972, -0.2959519), (0.12127662, 1.2951065, -0.29812118)]
        uniform token type = "linear"
    }

    def BasisCurves "stroke_042"
    {
        int[] curveVertexCounts = [7]
        point3f[] points = [(0.119554214, 1.2064501, -0.28558576), (0.11802417, 1.1940386, -0.28715277), (0.11789257, 1.1775444, -0.29423434), (0.12391104, 1.1289592, -0.3344298), (0.12682463, 1.0934601, -0.3546495), (0.12766196, 1.0707415, -0.36304465), (0.12580742, 1.0512587, -0.36466822)]
        uniform token type = "linear"
    }

    def BasisCurves "stroke_044"
    {
        int[] curveVertexCounts = [6]
        point3f[] points = [(0.117511846, 1.1247822, -0.12145352), (0.11066477, 1.1064284, -0.096457504), (0.105436444, 1.0830704, -0.053958777), (0.10606946, 1.0565869, -0.026495263), (0.1024651, 1.0178626, -0.0051154834), (0.0937842, 0.9816929, 0.0037364133)]
        uniform token type = "linear"
    }

    def BasisCurves "stroke_048"
    {
        int[] curveVertexCounts = [9]
        point3f[] points = [(0.11244923, 0.98877233, 0.0048001898), (0.07515607, 0.98082274, 0.004647953), (0.034922253, 0.9711713, -0.005004035), (0.0038525467, 0.9648636, -0.020738594), (-0.026072387, 0.95950156, -0.043091293), (-0.05828712, 0.95358026, -0.07437656), (-0.08035548, 0.94590455, -0.103264585), (-0.10507908, 0.9340632, -0.14724453), (-0.11225352, 0.9305021, -0.17661895)]
        uniform token type = "linear"
    }

    def BasisCurves "stroke_048_mirror"
    {
        int[] curveVertexCounts = [9]
        point3f[] points = [(0.13755077, 0.98877233, 0.0048001898), (0.17484394, 0.98082274, 0.004647953), (0.21507774, 0.9711713, -0.005004035), (0.24614745, 0.9648636, -0.020738594), (0.27607238, 0.95950156, -0.043091293), (0.3082871, 0.95358026, -0.07437656), (0.33035547, 0.94590455, -0.103264585), (0.35507908, 0.9340632, -0.14724453), (0.36225352, 0.9305021, -0.17661895)]
        uniform token type = "linear"
    }

    def BasisCurves "stroke_060"
    {
        int[] curveVertexCounts = [7]
        point3f[] points = [(-0.029706245, 1.1294955, -0.21297856), (-0.02251127, 1.1308469, -0.23537971), (-0.013519794, 1.1362307, -0.25644103), (-0.0007477541, 1.1408459, -0.27119103), (0.012949619, 1.1451942, -0.28083524), (0.047893357, 1.1505127, -0.2926477), (0.1298386, 1.1533749, -0.30163145)]
        uniform token type = "linear"
    }

    def BasisCurves "stroke_060_mirror"
    {
        int[] curveVertexCounts = [7]
        point3f[] points = [(0.27970624, 1.1294955, -0.21297856), (0.27251127, 1.1308469, -0.23537971), (0.2635198, 1.1362307, -0.25644103), (0.25074774, 1.1408459, -0.27119103), (0.23705038, 1.1451942, -0.28083524), (0.20210664, 1.1505127, -0.2926477), (0.1201614, 1.1533749, -0.30163145)]
        uniform token type = "linear"
    }

    def BasisCurves "stroke_064"
    {
        int[] curveVertexCounts = [9]
        point3f[] points = [(-0.12202984, 0.93948096, -0.18304272), (-0.11216617, 0.93636113, -0.22976622), (-0.09280824, 0.93851125, -0.27283925), (-0.06768875, 0.9438562, -0.30944335), (-0.038844213, 0.95144695, -0.33748388), (-0.004072878, 0.9582733, -0.3586291), (0.03468311, 0.96460086, -0.37242252), (0.09662773, 0.9650269, -0.38599908), (0.1286227, 0.96417415, -0.3884113)]
        uniform token type = "linear"
    }

    def BasisCurves "stroke_064_mirror"
    {
        int[] curveVertexCounts = [9]
        point3f[] points = [(0.37202984, 0.93948096, -0.18304272), (0.36216617, 0.93636113, -0.22976622), (0.34280825, 0.93851125, -0.27283925), (0.31768876, 0.9438562, -0.30944335), (0.28884423, 0.95144695, -0.33748388), (0.25407287, 0.9582733, -0.3586291), (0.21531689, 0.96460086, -0.37242252), (0.15337227, 0.9650269, -0.38599908), (0.1213773, 0.96417415, -0.3884113)]
        uniform token type = "linear"
    }

    def BasisCurves "stroke_066"
    {
        int[] curveVertexCounts = [6]
        point3f[] points = [(0.11843857, 1.1614207, -0.13667732), (0.10551334, 1.1621915, -0.13661243), (0.09156046, 1.1603802, -0.13728604), (0.07272731, 1.1594536, -0.14143541), (0.040560637, 1.1628993, -0.15680897), (0.022880048, 1.16535, -0.16992514)]
        uniform token type = "linear"
    }

    def BasisCurves "stroke_066_mirror"
    {
        int[] curveVertexCounts = [6]
        point3f[] points = [(0.13156143, 1.1614207, -0.13667732), (0.14448665, 1.1621915, -0.13661243), (0.15843955, 1.1603802, -0.13728604), (0.17727269, 1.1594536, -0.14143541), (0.20943937, 1.1628993, -0.15680897), (0.22711995, 1.16535, -0.16992514)]
        uniform token type = "linear"
    }

    def BasisCurves "stroke_068"
    {
        int[] curveVertexCounts = [3]
        point3f[] points = [(0.01719454, 1.1587914, -0.18128517), (0.0040147, 1.1603615, -0.19513755), (0.000083380604, 1.1636559, -0.21621932)]
        uniform token type = "linear"
    }

    def BasisCurves "stroke_068_mirror"
    {
        int[] curveVertexCounts = [3]
        point3f[] points = [(0.23280546, 1.1587914, -0.18128517), (0.2459853, 1.1603615, -0.19513755), (0.24991661, 1.1636559, -0.21621932)]
        uniform token type = "linear"
    }

    def BasisCurves "stroke_070"
    {
        int[] curveVertexCounts = [9]
        point3f[] points = [(-0.000843359, 1.1651796, -0.2178023), (0.006915946, 1.1694956, -0.2401942), (0.01802658, 1.1741211, -0.25932), (0.029560966, 1.1783005, -0.271513), (0.04663273, 1.1831802, -0.28309986), (0.065930605, 1.1851451, -0.29097417), (0.086178325, 1.1849953, -0.2947624), (0.10391959, 1.1846423, -0.2942616), (0.12150568, 1.1809754, -0.29287276)]
        uniform token type = "linear"
    }

    def BasisCurves "stroke_070_mirror"
    {
        int[] curveVertexCounts = [9]
        point3f[] points = [(0.25084335, 1.1651796, -0.2178023), (0.24308406, 1.1694956, -0.2401942), (0.23197342, 1.1741211, -0.25932), (0.22043903, 1.1783005, -0.271513), (0.20336726, 1.1831802, -0.28309986), (0.1840694, 1.1851451, -0.29097417), (0.16382168, 1.1849953, -0.2947624), (0.14608042, 1.1846423, -0.2942616), (0.12849432, 1.1809754, -0.29287276)]
        uniform token type = "linear"
    }

    def BasisCurves "stroke_074"
    {
        int[] curveVertexCounts = [3]
        point3f[] points = [(0.10829556, 1.1846038, -0.14549108), (0.1072518, 1.165158, -0.14045808), (0.10715265, 1.1571344, -0.13932152)]
        uniform token type = "linear"
    }

    def BasisCurves "stroke_074_mirror"
    {
        int[] curveVertexCounts = [3]
        point3f[] points = [(0.14170444, 1.1846038, -0.14549108), (0.1427482, 1.165158, -0.14045808), (0.14284736, 1.1571344, -0.13932152)]
        uniform token type = "linear"
    }

    def BasisCurves "stroke_076"
    {
        int[] curveVertexCounts = [3]
        point3f[] points = [(0.092596464, 1.1835818, -0.14767654), (0.09315627, 1.1742518, -0.1455279), (0.09300369, 1.1603869, -0.14482963)]
        uniform token type = "linear"
    }

    def BasisCurves "stroke_076_mirror"
    {
        int[] curveVertexCounts = [3]
        point3f[] points = [(0.15740353, 1.1835818, -0.14767654), (0.15684374, 1.1742518, -0.1455279), (0.15699631, 1.1603869, -0.14482963)]
        uniform token type = "linear"
    }

    def BasisCurves "stroke_078"
    {
        int[] curveVertexCounts = [3]
        point3f[] points = [(0.07995484, 1.1824512, -0.15320973), (0.08140641, 1.1708002, -0.1493365), (0.08137906, 1.1593162, -0.14837533)]
        uniform token type = "linear"
    }

    def BasisCurves "stroke_078_mirror"
    {
        int[] curveVertexCounts = [3]
        point3f[] points = [(0.17004517, 1.1824512, -0.15320973), (0.16859359, 1.1708002, -0.1493365), (0.16862094, 1.1593162, -0.14837533)]
        uniform token type = "linear"
    }

    def BasisCurves "stroke_080"
    {
        int[] curveVertexCounts = [2]
        point3f[] points = [(0.06881953, 1.1820991, -0.15767035), (0.06838223, 1.1607721, -0.15232848)]
        uniform token type = "linear"
    }

    def BasisCurves "stroke_080_mirror"
    {
        int[] curveVertexCounts = [2]
        point3f[] points = [(0.18118048, 1.1820991, -0.15767035), (0.18161777, 1.1607721, -0.15232848)]
        uniform token type = "linear"
    }

    def BasisCurves "stroke_082"
    {
        int[] curveVertexCounts = [2]
        point3f[] points = [(0.057883415, 1.1833388, -0.16302907), (0.05611105, 1.160717, -0.15573408)]
        uniform token type = "linear"
    }

    def BasisCurves "stroke_082_mirror"
    {
        int[] curveVertexCounts = [2]
        point3f[] points = [(0.19211659, 1.1833388, -0.16302907), (0.19388895, 1.160717, -0.15573408)]
        uniform token type = "linear"
    }

    def BasisCurves "stroke_084"
    {
        int[] curveVertexCounts = [2]
        point3f[] points = [(0.045575693, 1.184169, -0.16956027), (0.044178408, 1.1594425, -0.16360341)]
        uniform token type = "linear"
    }

    def BasisCurves "stroke_084_mirror"
    {
        int[] curveVertexCounts = [2]
        point3f[] points = [(0.2044243, 1.184169, -0.16956027), (0.20582159, 1.1594425, -0.16360341)]
        uniform token type = "linear"
    }

    def BasisCurves "stroke_086"
    {
        int[] curveVertexCounts = [3]
        point3f[] points = [(0.032241218, 1.1864834, -0.17852508), (0.02987355, 1.1662309, -0.17481269), (0.029273622, 1.1600084, -0.17257658)]
        uniform token type = "linear"
    }

    def BasisCurves "stroke_086_mirror"
    {
        int[] curveVertexCounts = [3]
        point3f[] points = [(0.21775877, 1.1864834, -0.17852508), (0.22012645, 1.1662309, -0.17481269), (0.22072639, 1.1600084, -0.17257658)]
        uniform token type = "linear"
    }

    def BasisCurves "stroke_092"
    {
        int[] curveVertexCounts = [5]
        point3f[] points = [(0.122569226, 0.9857686, 0.002169622), (0.123804644, 0.9451282, 0.028275853), (0.1294988, 0.8874414, 0.04621695), (0.12917288, 0.82653576, 0.054675307), (0.1219876, 0.78182286, 0.05447024)]
        uniform token type = "linear"
    }

    def BasisCurves "stroke_102"
    {
        int[] curveVertexCounts = [5]
        point3f[] points = [(0.10997058, 0.78926533, 0.05312578), (0.08229201, 0.78530264, 0.054512326), (0.07021339, 0.7832918, 0.050918944), (0.05715607, 0.77957183, 0.041223235), (0.04702501, 0.78068066, 0.023267388)]
        uniform token type = "linear"
    }

    def BasisCurves "stroke_102_mirror"
    {
        int[] curveVertexCounts = [5]
        point3f[] points = [(0.14002943, 0.78926533, 0.05312578), (0.167708, 0.78530264, 0.054512326), (0.17978661, 0.7832918, 0.050918944), (0.19284393, 0.77957183, 0.041223235), (0.20297499, 0.78068066, 0.023267388)]
        uniform token type = "linear"
    }

    def BasisCurves "stroke_104"
    {
        int[] curveVertexCounts = [7]
        point3f[] points = [(0.049334656, 0.78667015, 0.021660388), (0.037936643, 0.7878451, 0.0072792857), (0.02598016, 0.7883898, 0.000615827), (-0.0014481625, 0.78287274, 0.0012090444), (-0.017257502, 0.7780603, 0.008919592), (-0.03055104, 0.7728543, 0.02074903), (-0.04759907, 0.76486355, 0.053909484)]
        uniform token type = "linear"
    }

    def BasisCurves "stroke_104_mirror"
    {
        int[] curveVertexCounts = [7]
        point3f[] points = [(0.20066534, 0.78667015, 0.021660388), (0.21206336, 0.7878451, 0.0072792857), (0.22401984, 0.7883898, 0.000615827), (0.25144815, 0.78287274, 0.0012090444), (0.2672575, 0.7780603, 0.008919592), (0.28055105, 0.7728543, 0.02074903), (0.29759908, 0.76486355, 0.053909484)]
        uniform token type = "linear"
    }

    def BasisCurves "stroke_110"
    {
        int[] curveVertexCounts = [9]
        point3f[] points = [(-0.043212455, 0.78124386, 0.04938279), (-0.055995043, 0.77034265, 0.06332883), (-0.07522404, 0.75969964, 0.071449794), (-0.09587263, 0.7511188, 0.071734704), (-0.118712425, 0.7431423, 0.06144851), (-0.13597693, 0.73897946, 0.04467028), (-0.15113614, 0.7368442, 0.023654472), (-0.16490443, 0.7383848, -0.004781513), (-0.17811213, 0.7489164, -0.039386954)]
        uniform token type = "linear"
    }

    def BasisCurves "stroke_110_mirror"
    {
        int[] curveVertexCounts = [9]
        point3f[] points = [(0.29321244, 0.78124386, 0.04938279), (0.30599505, 0.77034265, 0.06332883), (0.32522404, 0.75969964, 0.071449794), (0.34587264, 0.7511188, 0.071734704), (0.36871243, 0.7431423, 0.06144851), (0.3859769, 0.73897946, 0.04467028), (0.40113616, 0.7368442, 0.023654472), (0.41490445, 0.7383848, -0.004781513), (0.42811212, 0.7489164, -0.039386954)]
        uniform token type = "linear"
    }

    def BasisCurves "stroke_112"
    {
        int[] curveVertexCounts = [8]
        point3f[] points = [(-0.16527888, 0.7679973, -0.034244), (-0.17164756, 0.76094025, -0.058385592), (-0.17966846, 0.74841326, -0.078350514), (-0.19343868, 0.7167717, -0.1094394), (-0.202131, 0.6868055, -0.13452686), (-0.20678936, 0.6742717, -0.14891149), (-0.21166095, 0.6713522, -0.1651207), (-0.21446992, 0.6741053, -0.17296785)]
        uniform token type = "linear"
    }

    def BasisCurves "stroke_112_mirror"
    {
        int[] curveVertexCounts = [8]
        point3f[] points = [(0.41527888, 0.7679973, -0.034244), (0.42164758, 0.76094025, -0.058385592), (0.42966846, 0.74841326, -0.078350514), (0.44343868, 0.7167717, -0.1094394), (0.452131, 0.6868055, -0.13452686), (0.45678934, 0.6742717, -0.14891149), (0.46166095, 0.6713522, -0.1651207), (0.46446994, 0.6741053, -0.17296785)]
        uniform token type = "linear"
    }

    def BasisCurves "stroke_114"
    {
        int[] curveVertexCounts = [5]
        point3f[] points = [(0.016762435, 0.78384906, -0.001686414), (0.011251839, 0.79434013, -0.0156689), (0.0034164481, 0.8106556, -0.029417831), (-0.0077263145, 0.8454521, -0.043464668), (-0.026207013, 0.9455711, -0.047293402)]
        uniform token type = "linear"
    }

    def BasisCurves "stroke_114_mirror"
    {
        int[] curveVertexCounts = [5]
        point3f[] points = [(0.23323756, 0.78384906, -0.001686414), (0.23874816, 0.79434013, -0.0156689), (0.24658355, 0.8106556, -0.029417831), (0.2577263, 0.8454521, -0.043464668), (0.276207, 0.9455711, -0.047293402)]
        uniform token type = "linear"
    }

    def BasisCurves "stroke_118"
    {
        int[] curveVertexCounts = [5]
        point3f[] points = [(0.055979222, 0.9734386, -0.0044408417), (0.066466786, 0.93997127, 0.012460802), (0.07522689, 0.8831438, 0.027091356), (0.07613459, 0.8413354, 0.031238008), (0.07089889, 0.781265, 0.032863244)]
        uniform token type = "linear"
    }

    def BasisCurves "stroke_118_mirror"
    {
        int[] curveVertexCounts = [5]
        point3f[] points = [(0.19402078, 0.9734386, -0.0044408417), (0.1835332, 0.93997127, 0.012460802), (0.17477311, 0.8831438, 0.027091356), (0.17386541, 0.8413354, 0.031238008), (0.17910111, 0.781265, 0.032863244)]
        uniform token type = "linear"
    }

    def BasisCurves "stroke_120"
    {
        int[] curveVertexCounts = [7]
        point3f[] points = [(0.1190457, 0.856428, 0.053347237), (0.1050481, 0.8505027, 0.05476189), (0.080406524, 0.8426118, 0.040488582), (0.0431222, 0.85145783, -0.0058584292), (0.03009943, 0.85111827, -0.017174698), (0.017586567, 0.8459584, -0.02477826), (-0.000026476944, 0.8295894, -0.030576037)]
        uniform token type = "linear"
    }

    def BasisCurves "stroke_120_mirror"
    {
        int[] curveVertexCounts = [7]
        point3f[] points = [(0.1309543, 0.856428, 0.053347237), (0.1449519, 0.8505027, 0.05476189), (0.16959348, 0.8426118, 0.040488582), (0.2068778, 0.85145783, -0.0058584292), (0.21990056, 0.85111827, -0.017174698), (0.23241344, 0.8459584, -0.02477826), (0.25002646, 0.8295894, -0.030576037)]
        uniform token type = "linear"
    }

    def BasisCurves "stroke_122"
    {
        int[] curveVertexCounts = [9]
        point3f[] points = [(0.122755595, 0.93575454, 0.03430405), (0.10184191, 0.9343835, 0.03832199), (0.08295243, 0.92965215, 0.03421426), (0.07198995, 0.9256392, 0.020744624), (0.053872358, 0.9292819, -0.010745942), (0.035864353, 0.9296304, -0.025341718), (0.0091911, 0.9210418, -0.038989604), (-0.008872454, 0.9086967, -0.044468034), (-0.014284788, 0.90146077, -0.04511629)]
        uniform token type = "linear"
    }

    def BasisCurves "stroke_122_mirror"
    {
        int[] curveVertexCounts = [9]
        point3f[] points = [(0.1272444, 0.93575454, 0.03430405), (0.14815809, 0.9343835, 0.03832199), (0.16704758, 0.92965215, 0.03421426), (0.17801005, 0.9256392, 0.020744624), (0.19612764, 0.9292819, -0.010745942), (0.21413565, 0.9296304, -0.025341718), (0.2408089, 0.9210418, -0.038989604), (0.25887245, 0.9086967, -0.044468034), (0.2642848, 0.90146077, -0.04511629)]
        uniform token type = "linear"
    }

    def BasisCurves "stroke_124"
    {
        int[] curveVertexCounts = [5]
        point3f[] points = [(-0.086515784, 0.7774065, 0.08336913), (-0.10731359, 0.812005, 0.044313695), (-0.11268737, 0.8497808, 0.01121991), (-0.1000141, 0.9119029, -0.055336326), (-0.07877088, 0.94635504, -0.09734094)]
        uniform token type = "linear"
    }

    def BasisCurves "stroke_124_mirror"
    {
        int[] curveVertexCounts = [5]
        point3f[] points = [(0.33651578, 0.7774065, 0.08336913), (0.35731357, 0.812005, 0.044313695), (0.36268738, 0.8497808, 0.01121991), (0.3500141, 0.9119029, -0.055336326), (0.32877088, 0.94635504, -0.09734094)]
        uniform token type = "linear"
    }

    def BasisCurves "stroke_126"
    {
        int[] curveVertexCounts = [3]
        point3f[] points = [(-0.029203895, 0.9026087, -0.04254999), (-0.071349815, 0.8889321, -0.023957023), (-0.10194379, 0.86914045, -0.017753633)]
        uniform token type = "linear"
    }

    def BasisCurves "stroke_126_mirror"
    {
        int[] curveVertexCounts = [3]
        point3f[] points = [(0.2792039, 0.9026087, -0.04254999), (0.3213498, 0.8889321, -0.023957023), (0.3519438, 0.86914045, -0.017753633)]
        uniform token type = "linear"
    }

    def BasisCurves "stroke_128"
    {
        int[] curveVertexCounts = [5]
        point3f[] points = [(-0.0045878226, 0.8343455, -0.030068155), (-0.016536407, 0.832289, -0.024849346), (-0.0518059, 0.82213783, 0.004908632), (-0.0717736, 0.81646156, 0.027043872), (-0.08435515, 0.8082979, 0.040315967)]
        uniform token type = "linear"
    }

    def BasisCurves "stroke_128_mirror"
    {
        int[] curveVertexCounts = [5]
        point3f[] points = [(0.25458783, 0.8343455, -0.030068155), (0.2665364, 0.832289, -0.024849346), (0.3018059, 0.82213783, 0.004908632), (0.3217736, 0.81646156, 0.027043872), (0.33435515, 0.8082979, 0.040315967)]
        uniform token type = "linear"
    }

    def BasisCurves "stroke_130"
    {
        int[] curveVertexCounts = [6]
        point3f[] points = [(-0.19569309, 0.684557, -0.1653293), (-0.19072242, 0.68472666, -0.18388198), (-0.18347645, 0.6896134, -0.20399158), (-0.17298725, 0.70665467, -0.23305227), (-0.1649025, 0.7351539, -0.2593689), (-0.15798682, 0.77254826, -0.28015527)]
        uniform token type = "linear"
    }

    def BasisCurves "stroke_130_mirror"
    {
        int[] curveVertexCounts = [6]
        point3f[] points = [(0.4456931, 0.684557, -0.1653293), (0.44072244, 0.68472666, -0.18388198), (0.43347645, 0.6896134, -0.20399158), (0.42298725, 0.70665467, -0.23305227), (0.4149025, 0.7351539, -0.2593689), (0.40798682, 0.77254826, -0.28015527)]
        uniform token type = "linear"
    }

    def BasisCurves "stroke_132"
    {
        int[] curveVertexCounts = [8]
        point3f[] points = [(-0.1772014, 0.7631907, -0.27488762), (-0.15833768, 0.7779966, -0.2908017), (-0.14137536, 0.7820159, -0.3031799), (-0.12059894, 0.77959394, -0.3199439), (-0.096174516, 0.7685583, -0.342716), (-0.07316718, 0.74652886, -0.3576097), (-0.03485045, 0.69279283, -0.3659176), (-0.00908991, 0.67054856, -0.3735312)]
        uniform token type = "linear"
    }

    def BasisCurves "stroke_132_mirror"
    {
        int[] curveVertexCounts = [8]
        point3f[] points = [(0.4272014, 0.7631907, -0.27488762), (0.40833768, 0.7779966, -0.2908017), (0.39137536, 0.7820159, -0.3031799), (0.37059894, 0.77959394, -0.3199439), (0.3461745, 0.7685583, -0.342716), (0.32316718, 0.74652886, -0.3576097), (0.28485045, 0.69279283, -0.3659176), (0.25908992, 0.67054856, -0.3735312)]
        uniform token type = "linear"
    }

    def BasisCurves "stroke_142"
    {
        int[] curveVertexCounts = [13]
        point3f[] points = [(0.119961284, 0.74473464, -0.43198723), (0.11000188, 0.7376804, -0.43327814), (0.08886366, 0.72893804, -0.4311809), (0.06771013, 0.72146696, -0.4228518), (0.05324011, 0.72064817, -0.4110965), (0.031486474, 0.7257752, -0.38688442), (0.017871939, 0.7231126, -0.37633947), (0.0068813134, 0.7157381, -0.37375623), (-0.008824141, 0.69005466, -0.38733444), (-0.01539792, 0.6854305, -0.38953865), (-0.029357012, 0.6803598, -0.3872824), (-0.043379113, 0.67645764, -0.3787029), (-0.057573374, 0.6819481, -0.3677809)]
        uniform token type = "linear"
    }

    def BasisCurves "stroke_142_mirror"
    {
        int[] curveVertexCounts = [13]
        point3f[] points = [(0.13003872, 0.74473464, -0.43198723), (0.13999812, 0.7376804, -0.43327814), (0.16113634, 0.72893804, -0.4311809), (0.18228987, 0.72146696, -0.4228518), (0.1967599, 0.72064817, -0.4110965), (0.21851352, 0.7257752, -0.38688442), (0.23212807, 0.7231126, -0.37633947), (0.24311869, 0.7157381, -0.37375623), (0.25882414, 0.69005466, -0.38733444), (0.2653979, 0.6854305, -0.38953865), (0.27935702, 0.6803598, -0.3872824), (0.29337913, 0.67645764, -0.3787029), (0.30757338, 0.6819481, -0.3677809)]
        uniform token type = "linear"
    }

    def BasisCurves "stroke_144"
    {
        int[] curveVertexCounts = [8]
        point3f[] points = [(-0.11601863, 0.92638785, -0.17689642), (-0.1109943, 0.8954341, -0.1730536), (-0.11265676, 0.86103714, -0.17023128), (-0.11916678, 0.8248941, -0.17042188), (-0.12958196, 0.78035176, -0.17675585), (-0.13653804, 0.75982577, -0.17739026), (-0.15204193, 0.7321687, -0.172275), (-0.191918, 0.68861234, -0.15140192)]
        uniform token type = "linear"
    }

    def BasisCurves "stroke_144_mirror"
    {
        int[] curveVertexCounts = [8]
        point3f[] points = [(0.36601862, 0.92638785, -0.17689642), (0.3609943, 0.8954341, -0.1730536), (0.36265674, 0.86103714, -0.17023128), (0.3691668, 0.8248941, -0.17042188), (0.37958196, 0.78035176, -0.17675585), (0.38653806, 0.75982577, -0.17739026), (0.40204194, 0.7321687, -0.172275), (0.441918, 0.68861234, -0.15140192)]
        uniform token type = "linear"
    }

    def BasisCurves "stroke_148"
    {
        int[] curveVertexCounts = [9]
        point3f[] points = [(-0.103577554, 0.8708397, -0.025919687), (-0.1177152, 0.85826516, -0.035550006), (-0.12725605, 0.8520482, -0.047502704), (-0.13436823, 0.8465801, -0.06740598), (-0.138526, 0.8422533, -0.09325962), (-0.13744622, 0.84146667, -0.122724816), (-0.13310267, 0.84116834, -0.1397689), (-0.12302416, 0.8408609, -0.16002138), (-0.11155126, 0.8432807, -0.17465386)]
        uniform token type = "linear"
    }

    def BasisCurves "stroke_148_mirror"
    {
        int[] curveVertexCounts = [9]
        point3f[] points = [(0.35357755, 0.8708397, -0.025919687), (0.3677152, 0.85826516, -0.035550006), (0.37725607, 0.8520482, -0.047502704), (0.38436824, 0.8465801, -0.06740598), (0.388526, 0.8422533, -0.09325962), (0.38744622, 0.84146667, -0.122724816), (0.38310266, 0.84116834, -0.1397689), (0.37302417, 0.8408609, -0.16002138), (0.36155125, 0.8432807, -0.17465386)]
        uniform token type = "linear"
    }

    def BasisCurves "stroke_150"
    {
        int[] curveVertexCounts = [10]
        point3f[] points = [(-0.09922129, 0.80656105, 0.03636374), (-0.114003986, 0.79812557, 0.027346957), (-0.12570111, 0.79467726, 0.011002982), (-0.13023017, 0.79683435, 0.0011421083), (-0.13828684, 0.81325096, -0.032055452), (-0.14549324, 0.8054248, -0.060324084), (-0.15095577, 0.7888955, -0.08269344), (-0.15732348, 0.7223409, -0.1416372), (-0.15800993, 0.711837, -0.1596979), (-0.1589002, 0.71185344, -0.17010729)]
        uniform token type = "linear"
    }

    def BasisCurves "stroke_150_mirror"
    {
        int[] curveVertexCounts = [10]
        point3f[] points = [(0.3492213, 0.80656105, 0.03636374), (0.364004, 0.79812557, 0.027346957), (0.37570113, 0.79467726, 0.011002982), (0.38023016, 0.79683435, 0.0011421083), (0.38828686, 0.81325096, -0.032055452), (0.39549324, 0.8054248, -0.060324084), (0.40095577, 0.7888955, -0.08269344), (0.40732348, 0.7223409, -0.1416372), (0.40800992, 0.711837, -0.1596979), (0.4089002, 0.71185344, -0.17010729)]
        uniform token type = "linear"
    }

    def BasisCurves "stroke_158"
    {
        int[] curveVertexCounts = [3]
        point3f[] points = [(0.0069829337, 1.3923061, -0.17709044), (-0.008827126, 1.3919183, -0.17699863), (-0.02241056, 1.3958573, -0.17699185)]
        uniform token type = "linear"
    }

    def BasisCurves "stroke_158_mirror"
    {
        int[] curveVertexCounts = [3]
        point3f[] points = [(0.24301706, 1.3923061, -0.17709044), (0.25882712, 1.3919183, -0.17699863), (0.27241057, 1.3958573, -0.17699185)]
        uniform token type = "linear"
    }

    def BasisCurves "stroke_160"
    {
        int[] curveVertexCounts = [3]
        point3f[] points = [(-0.020657972, 1.3965734, -0.1772502), (-0.015350382, 1.4040052, -0.1884844), (-0.013245075, 1.4110787, -0.19561566)]
        uniform token type = "linear"
    }

    def BasisCurves "stroke_160_mirror"
    {
        int[] curveVertexCounts = [3]
        point3f[] points = [(0.27065796, 1.3965734, -0.1772502), (0.26535037, 1.4040052, -0.1884844), (0.26324508, 1.4110787, -0.19561566)]
        uniform token type = "linear"
    }

    def BasisCurves "stroke_162"
    {
        int[] curveVertexCounts = [2]
        point3f[] points = [(-0.015368962, 1.4100899, -0.19437458), (-0.03659626, 1.4088523, -0.20172456)]
        uniform token type = "linear"
    }

    def BasisCurves "stroke_162_mirror"
    {
        int[] curveVertexCounts = [2]
        point3f[] points = [(0.26536897, 1.4100899, -0.19437458), (0.28659627, 1.4088523, -0.20172456)]
        uniform token type = "linear"
    }

    def BasisCurves "stroke_164"
    {
        int[] curveVertexCounts = [3]
        point3f[] points = [(-0.03539296, 1.4121428, -0.20149492), (-0.028249262, 1.4200406, -0.2100619), (-0.023281677, 1.4240917, -0.21814714)]
        uniform token type = "linear"
    }

    def BasisCurves "stroke_164_mirror"
    {
        int[] curveVertexCounts = [3]
        point3f[] points = [(0.28539297, 1.4121428, -0.20149492), (0.27824926, 1.4200406, -0.2100619), (0.27328166, 1.4240917, -0.21814714)]
        uniform token type = "linear"
    }

    def BasisCurves "stroke_166"
    {
        int[] curveVertexCounts = [2]
        point3f[] points = [(-0.025690751, 1.4226643, -0.21705961), (-0.044710904, 1.4113646, -0.22530349)]
        uniform token type = "linear"
    }

    def BasisCurves "stroke_166_mirror"
    {
        int[] curveVertexCounts = [2]
        point3f[] points = [(0.27569076, 1.4226643, -0.21705961), (0.2947109, 1.4113646, -0.22530349)]
        uniform token type = "linear"
    }

    def BasisCurves "stroke_168"
    {
        int[] curveVertexCounts = [3]
        point3f[] points = [(-0.04370067, 1.4148076, -0.22440553), (-0.03432292, 1.422776, -0.23449309), (-0.026935393, 1.4296408, -0.24910916)]
        uniform token type = "linear"
    }

    def BasisCurves "stroke_168_mirror"
    {
        int[] curveVertexCounts = [3]
        point3f[] points = [(0.29370067, 1.4148076, -0.22440553), (0.28432292, 1.422776, -0.23449309), (0.2769354, 1.4296408, -0.24910916)]
        uniform token type = "linear"
    }

    def BasisCurves "stroke_170"
    {
        int[] curveVertexCounts = [2]
        point3f[] points = [(-0.027907567, 1.4271457, -0.24927182), (-0.04141344, 1.4148105, -0.2504478)]
        uniform token type = "linear"
    }

    def BasisCurves "stroke_170_mirror"
    {
        int[] curveVertexCounts = [2]
        point3f[] points = [(0.27790758, 1.4271457, -0.24927182), (0.29141343, 1.4148105, -0.2504478)]
        uniform token type = "linear"
    }

    def BasisCurves "stroke_172"
    {
        int[] curveVertexCounts = [4]
        point3f[] points = [(-0.044461727, 1.4185734, -0.24896093), (-0.030341908, 1.4212525, -0.26449943), (-0.021660605, 1.4202377, -0.27244535), (-0.002130264, 1.4122498, -0.28544283)]
        uniform token type = "linear"
    }

    def BasisCurves "stroke_172_mirror"
    {
        int[] curveVertexCounts = [4]
        point3f[] points = [(0.29446173, 1.4185734, -0.24896093), (0.2803419, 1.4212525, -0.26449943), (0.2716606, 1.4202377, -0.27244535), (0.25213027, 1.4122498, -0.28544283)]
        uniform token type = "linear"
    }

    def BasisCurves "stroke_174"
    {
        int[] curveVertexCounts = [3]
        point3f[] points = [(-0.004869375, 1.4107082, -0.27794713), (-0.01959284, 1.4009247, -0.2637998), (-0.025259905, 1.392179, -0.2565185)]
        uniform token type = "linear"
    }

    def BasisCurves "stroke_174_mirror"
    {
        int[] curveVertexCounts = [3]
        point3f[] points = [(0.25486937, 1.4107082, -0.27794713), (0.26959285, 1.4009247, -0.2637998), (0.2752599, 1.392179, -0.2565185)]
        uniform token type = "linear"
    }

    def BasisCurves "stroke_176"
    {
        int[] curveVertexCounts = [2]
        point3f[] points = [(-0.025163976, 1.391757, -0.26073092), (-0.0035184287, 1.3736346, -0.27828497)]
        uniform token type = "linear"
    }

    def BasisCurves "stroke_176_mirror"
    {
        int[] curveVertexCounts = [2]
        point3f[] points = [(0.27516398, 1.391757, -0.26073092), (0.25351843, 1.3736346, -0.27828497)]
        uniform token type = "linear"
    }

    def BasisCurves "stroke_188"
    {
        int[] curveVertexCounts = [7]
        point3f[] points = [(-0.07263791, 0.9400502, -0.27216557), (-0.06897817, 0.9198092, -0.27507317), (-0.07431957, 0.8891968, -0.28030607), (-0.09796308, 0.837066, -0.2909795), (-0.1166758, 0.8149011, -0.29793748), (-0.14574741, 0.79981476, -0.30807307), (-0.16002071, 0.7873092, -0.31184638)]
        uniform token type = "linear"
    }

    def BasisCurves "stroke_188_mirror"
    {
        int[] curveVertexCounts = [7]
        point3f[] points = [(0.32263792, 0.9400502, -0.27216557), (0.31897816, 0.9198092, -0.27507317), (0.32431957, 0.8891968, -0.28030607), (0.3479631, 0.837066, -0.2909795), (0.3666758, 0.8149011, -0.29793748), (0.3957474, 0.79981476, -0.30807307), (0.4100207, 0.7873092, -0.31184638)]
        uniform token type = "linear"
    }

    def BasisCurves "stroke_192"
    {
        int[] curveVertexCounts = [9]
        point3f[] points = [(-0.1588382, 0.7179778, -0.16320342), (-0.15682977, 0.72633886, -0.18699364), (-0.1555777, 0.7412082, -0.20593373), (-0.15156539, 0.78875923, -0.24015155), (-0.14700301, 0.80926216, -0.25717893), (-0.14141008, 0.8177806, -0.27110955), (-0.13590385, 0.8211618, -0.28675887), (-0.13134576, 0.8199847, -0.29713014), (-0.1259001, 0.8138043, -0.30668673)]
        uniform token type = "linear"
    }

    def BasisCurves "stroke_192_mirror"
    {
        int[] curveVertexCounts = [9]
        point3f[] points = [(0.4088382, 0.7179778, -0.16320342), (0.40682977, 0.72633886, -0.18699364), (0.4055777, 0.7412082, -0.20593373), (0.4015654, 0.78875923, -0.24015155), (0.39700302, 0.80926216, -0.25717893), (0.39141008, 0.8177806, -0.27110955), (0.38590384, 0.8211618, -0.28675887), (0.38134578, 0.8199847, -0.29713014), (0.3759001, 0.8138043, -0.30668673)]
        uniform token type = "linear"
    }

    def BasisCurves "stroke_194"
    {
        int[] curveVertexCounts = [6]
        point3f[] points = [(-0.1193417, 0.845374, -0.17244567), (-0.10212634, 0.8558158, -0.19370085), (-0.08969903, 0.8696577, -0.2170027), (-0.08311938, 0.87603265, -0.23467694), (-0.081261754, 0.87869847, -0.25881574), (-0.083276324, 0.8694027, -0.29149193)]
        uniform token type = "linear"
    }

    def BasisCurves "stroke_194_mirror"
    {
        int[] curveVertexCounts = [6]
        point3f[] points = [(0.3693417, 0.845374, -0.17244567), (0.35212633, 0.8558158, -0.19370085), (0.33969903, 0.8696577, -0.2170027), (0.3331194, 0.87603265, -0.23467694), (0.33126175, 0.87869847, -0.25881574), (0.33327633, 0.8694027, -0.29149193)]
        uniform token type = "linear"
    }

    def BasisCurves "stroke_200"
    {
        int[] curveVertexCounts = [9]
        point3f[] points = [(0.020602582, 0.7250657, -0.37382597), (0.012817944, 0.74115115, -0.37057874), (0.005812025, 0.782509, -0.36672428), (0.0010707258, 0.8379668, -0.36744), (0.0009725381, 0.8813063, -0.37025094), (0.0041025938, 0.9046262, -0.37348652), (0.01022491, 0.9213075, -0.3755884), (0.020770393, 0.9430097, -0.38306212), (0.029861841, 0.9539714, -0.38623777)]
        uniform token type = "linear"
    }

    def BasisCurves "stroke_200_mirror"
    {
        int[] curveVertexCounts = [9]
        point3f[] points = [(0.22939742, 0.7250657, -0.37382597), (0.23718205, 0.74115115, -0.37057874), (0.24418798, 0.782509, -0.36672428), (0.24892928, 0.8379668, -0.36744), (0.24902746, 0.8813063, -0.37025094), (0.24589741, 0.9046262, -0.37348652), (0.23977509, 0.9213075, -0.3755884), (0.22922961, 0.9430097, -0.38306212), (0.22013816, 0.9539714, -0.38623777)]
        uniform token type = "linear"
    }

    def BasisCurves "stroke_202"
    {
        int[] curveVertexCounts = [8]
        point3f[] points = [(-0.11730217, 0.81283563, -0.3121194), (-0.077863686, 0.761825, -0.34641498), (-0.06445256, 0.7481134, -0.35346338), (-0.052241527, 0.7400621, -0.3569514), (-0.03900209, 0.7375975, -0.36075878), (-0.026024792, 0.7401797, -0.36365744), (-0.0071065594, 0.7522398, -0.36865392), (0.0035480664, 0.76575387, -0.37167773)]
        uniform token type = "linear"
    }

    def BasisCurves "stroke_202_mirror"
    {
        int[] curveVertexCounts = [8]
        point3f[] points = [(0.36730218, 0.81283563, -0.3121194), (0.3278637, 0.761825, -0.34641498), (0.31445256, 0.7481134, -0.35346338), (0.30224153, 0.7400621, -0.3569514), (0.2890021, 0.7375975, -0.36075878), (0.2760248, 0.7401797, -0.36365744), (0.25710657, 0.7522398, -0.36865392), (0.24645193, 0.76575387, -0.37167773)]
        uniform token type = "linear"
    }

    def BasisCurves "stroke_204"
    {
        int[] curveVertexCounts = [5]
        point3f[] points = [(-0.084311344, 0.8707928, -0.298992), (-0.077867016, 0.86218, -0.32479382), (-0.059332017, 0.8554761, -0.34588403), (-0.029572036, 0.85176504, -0.35798553), (0.010906175, 0.8556719, -0.36357608)]
        uniform token type = "linear"
    }

    def BasisCurves "stroke_204_mirror"
    {
        int[] curveVertexCounts = [5]
        point3f[] points = [(0.33431134, 0.8707928, -0.298992), (0.32786703, 0.86218, -0.32479382), (0.309332, 0.8554761, -0.34588403), (0.27957204, 0.85176504, -0.35798553), (0.23909383, 0.8556719, -0.36357608)]
        uniform token type = "linear"
    }

    def BasisCurves "stroke_208"
    {
        int[] curveVertexCounts = [5]
        point3f[] points = [(-0.0013844834, 0.85225105, -0.37503392), (0.029544838, 0.854458, -0.40498647), (0.0635746, 0.8630294, -0.426484), (0.10604501, 0.87725204, -0.43707383), (0.12648204, 0.88267267, -0.4338813)]
        uniform token type = "linear"
    }

    def BasisCurves "stroke_208_mirror"
    {
        int[] curveVertexCounts = [5]
        point3f[] points = [(0.2513845, 0.85225105, -0.37503392), (0.22045515, 0.854458, -0.40498647), (0.1864254, 0.8630294, -0.426484), (0.14395499, 0.87725204, -0.43707383), (0.12351796, 0.88267267, -0.4338813)]
        uniform token type = "linear"
    }

    def BasisCurves "stroke_210"
    {
        int[] curveVertexCounts = [6]
        point3f[] points = [(0.11926253, 1.0535146, -0.36785626), (0.11533766, 1.0337037, -0.37991485), (0.110517606, 0.97815144, -0.39244035), (0.11817123, 0.93042856, -0.4095068), (0.11999688, 0.90199363, -0.42403704), (0.123256266, 0.8826295, -0.4380844)]
        uniform token type = "linear"
    }

    def BasisCurves "stroke_212"
    {
        int[] curveVertexCounts = [5]
        point3f[] points = [(0.11674685, 0.878034, -0.43951944), (0.117733136, 0.85692257, -0.4480111), (0.11718651, 0.824024, -0.45272914), (0.116266936, 0.7872511, -0.44889724), (0.11667916, 0.75101334, -0.4371903)]
        uniform token type = "linear"
    }

    def BasisCurves "stroke_214"
    {
        int[] curveVertexCounts = [7]
        point3f[] points = [(0.017547278, 1.1188046, -0.14757685), (0.012717439, 1.0926287, -0.12708017), (-0.011544824, 1.0541329, -0.10338318), (-0.025284627, 1.0162741, -0.07940061), (-0.029762648, 1.0003451, -0.06549708), (-0.031812467, 0.9833918, -0.055751488), (-0.029614666, 0.95589495, -0.043630034)]
        uniform token type = "linear"
    }

    def BasisCurves "stroke_214_mirror"
    {
        int[] curveVertexCounts = [7]
        point3f[] points = [(0.23245272, 1.1188046, -0.14757685), (0.23728256, 1.0926287, -0.12708017), (0.26154482, 1.0541329, -0.10338318), (0.27528462, 1.0162741, -0.07940061), (0.27976266, 1.0003451, -0.06549708), (0.28181246, 0.9833918, -0.055751488), (0.27961466, 0.95589495, -0.043630034)]
        uniform token type = "linear"
    }

    def BasisCurves "stroke_216"
    {
        int[] curveVertexCounts = [10]
        point3f[] points = [(-0.02616365, 1.1282318, -0.20529567), (-0.048753608, 1.1081092, -0.1994584), (-0.06456713, 1.0841388, -0.1864808), (-0.07099243, 1.0696311, -0.18117058), (-0.07706625, 1.0438503, -0.17478713), (-0.08253209, 1.0187081, -0.17114109), (-0.09087771, 0.9843414, -0.17215955), (-0.096282, 0.960081, -0.17643057), (-0.10295294, 0.9411525, -0.1826796), (-0.11032792, 0.93053025, -0.18731757)]
        uniform token type = "linear"
    }

    def BasisCurves "stroke_216_mirror"
    {
        int[] curveVertexCounts = [10]
        point3f[] points = [(0.27616364, 1.1282318, -0.20529567), (0.29875362, 1.1081092, -0.1994584), (0.31456712, 1.0841388, -0.1864808), (0.32099244, 1.0696311, -0.18117058), (0.32706624, 1.0438503, -0.17478713), (0.33253208, 1.0187081, -0.17114109), (0.3408777, 0.9843414, -0.17215955), (0.346282, 0.960081, -0.17643057), (0.35295293, 0.9411525, -0.1826796), (0.36032793, 0.93053025, -0.18731757)]
        uniform token type = "linear"
    }

    def BasisCurves "stroke_218"
    {
        int[] curveVertexCounts = [10]
        point3f[] points = [(-0.08330353, 1.0451478, -0.18933055), (-0.0842482, 1.0490354, -0.2220151), (-0.07599867, 1.0581156, -0.25739515), (-0.05810447, 1.0688405, -0.29369816), (-0.033658266, 1.0766132, -0.31868297), (0.009719817, 1.0841496, -0.33955094), (0.047274146, 1.0834706, -0.3504913), (0.070720166, 1.0813928, -0.3563346), (0.10170772, 1.0732011, -0.3597662), (0.117211916, 1.0677779, -0.35873243)]
        uniform token type = "linear"
    }

    def BasisCurves "stroke_218_mirror"
    {
        int[] curveVertexCounts = [10]
        point3f[] points = [(0.33330354, 1.0451478, -0.18933055), (0.3342482, 1.0490354, -0.2220151), (0.32599866, 1.0581156, -0.25739515), (0.30810446, 1.0688405, -0.29369816), (0.28365827, 1.0766132, -0.31868297), (0.24028018, 1.0841496, -0.33955094), (0.20272586, 1.0834706, -0.3504913), (0.17927983, 1.0813928, -0.3563346), (0.14829229, 1.0732011, -0.3597662), (0.13278808, 1.0677779, -0.35873243)]
        uniform token type = "linear"
    }

    def BasisCurves "stroke_220"
    {
        int[] curveVertexCounts = [8]
        point3f[] points = [(0.11584487, 1.0746405, -0.053266305), (0.08462649, 1.065492, -0.048320238), (0.04863572, 1.0580938, -0.06076538), (0.024899324, 1.0548573, -0.0814165), (-0.008569081, 1.0660566, -0.1215602), (-0.038075816, 1.0682167, -0.14285949), (-0.06403705, 1.0591749, -0.1632383), (-0.08491135, 1.044424, -0.18568847)]
        uniform token type = "linear"
    }

    def BasisCurves "stroke_220_mirror"
    {
        int[] curveVertexCounts = [8]
        point3f[] points = [(0.13415514, 1.0746405, -0.053266305), (0.1653735, 1.065492, -0.048320238), (0.20136428, 1.0580938, -0.06076538), (0.22510068, 1.0548573, -0.0814165), (0.2585691, 1.0660566, -0.1215602), (0.2880758, 1.0682167, -0.14285949), (0.31403705, 1.0591749, -0.1632383), (0.33491135, 1.044424, -0.18568847)]
        uniform token type = "linear"
    }

    def BasisCurves "stroke_224"
    {
        int[] curveVertexCounts = [6]
        point3f[] points = [(0.07076779, 1.1148199, -0.12051207), (0.06435863, 1.1039385, -0.10756292), (0.05865095, 1.0864848, -0.083891034), (0.055351485, 1.0479627, -0.037476536), (0.05490072, 1.0185945, -0.01480123), (0.057418402, 0.98712265, -0.003915292)]
        uniform token type = "linear"
    }

    def BasisCurves "stroke_224_mirror"
    {
        int[] curveVertexCounts = [6]
        point3f[] points = [(0.17923221, 1.1148199, -0.12051207), (0.18564136, 1.1039385, -0.10756292), (0.19134904, 1.0864848, -0.083891034), (0.19464852, 1.0479627, -0.037476536), (0.19509928, 1.0185945, -0.01480123), (0.1925816, 0.98712265, -0.003915292)]
        uniform token type = "linear"
    }

    def BasisCurves "stroke_226"
    {
        int[] curveVertexCounts = [7]
        point3f[] points = [(-0.08192962, 0.95929724, -0.09838367), (-0.078261815, 0.96603775, -0.1044443), (-0.07342475, 0.99422234, -0.12242773), (-0.06084758, 1.0525118, -0.14969298), (-0.051812056, 1.0675511, -0.15654686), (-0.025020134, 1.098258, -0.17266996), (-0.010945268, 1.1169578, -0.18724197)]
        uniform token type = "linear"
    }

    def BasisCurves "stroke_226_mirror"
    {
        int[] curveVertexCounts = [7]
        point3f[] points = [(0.33192962, 0.95929724, -0.09838367), (0.32826182, 0.96603775, -0.1044443), (0.32342476, 0.99422234, -0.12242773), (0.31084758, 1.0525118, -0.14969298), (0.30181205, 1.0675511, -0.15654686), (0.27502012, 1.098258, -0.17266996), (0.26094526, 1.1169578, -0.18724197)]
        uniform token type = "linear"
    }

    def BasisCurves "stroke_228"
    {
        int[] curveVertexCounts = [6]
        point3f[] points = [(-0.08300046, 0.9564535, -0.27723774), (-0.08026815, 0.968603, -0.27271798), (-0.07350345, 1.0063411, -0.26890042), (-0.04633912, 1.0843209, -0.26049984), (-0.03765164, 1.1009489, -0.26054606), (-0.012156743, 1.1293242, -0.25758374)]
        uniform token type = "linear"
    }

    def BasisCurves "stroke_228_mirror"
    {
        int[] curveVertexCounts = [6]
        point3f[] points = [(0.33300045, 0.9564535, -0.27723774), (0.33026814, 0.968603, -0.27271798), (0.32350346, 1.0063411, -0.26890042), (0.29633912, 1.0843209, -0.26049984), (0.28765163, 1.1009489, -0.26054606), (0.26215675, 1.1293242, -0.25758374)]
        uniform token type = "linear"
    }

    def BasisCurves "stroke_230"
    {
        int[] curveVertexCounts = [6]
        point3f[] points = [(0.04932397, 1.144021, -0.30248237), (0.049804516, 1.1330408, -0.3181492), (0.048796095, 1.117534, -0.33124495), (0.0438242, 1.0666733, -0.35431582), (0.031361904, 1.0138978, -0.36753282), (0.022939019, 0.9718105, -0.36799538)]
        uniform token type = "linear"
    }

    def BasisCurves "stroke_230_mirror"
    {
        int[] curveVertexCounts = [6]
        point3f[] points = [(0.20067602, 1.144021, -0.30248237), (0.20019549, 1.1330408, -0.3181492), (0.2012039, 1.117534, -0.33124495), (0.2061758, 1.0666733, -0.35431582), (0.21863809, 1.0138978, -0.36753282), (0.22706099, 0.9718105, -0.36799538)]
        uniform token type = "linear"
    }

    def BasisCurves "stroke_232"
    {
        int[] curveVertexCounts = [6]
        point3f[] points = [(0.11167807, 1.3705567, -0.12291986), (0.10381401, 1.3628727, -0.12104739), (0.08602336, 1.3515776, -0.12169953), (0.07861638, 1.3493073, -0.123051696), (0.06868959, 1.3481688, -0.12674738), (0.06045334, 1.3508986, -0.12931727)]
        uniform token type = "linear"
    }

    def BasisCurves "stroke_232_mirror"
    {
        int[] curveVertexCounts = [6]
        point3f[] points = [(0.13832194, 1.3705567, -0.12291986), (0.146186, 1.3628727, -0.12104739), (0.16397664, 1.3515776, -0.12169953), (0.17138362, 1.3493073, -0.123051696), (0.18131042, 1.3481688, -0.12674738), (0.18954666, 1.3508986, -0.12931727)]
        uniform token type = "linear"
    }

    def BasisCurves "stroke_234"
    {
        int[] curveVertexCounts = [7]
        point3f[] points = [(0.05581409, 1.354101, -0.13091674), (0.041369986, 1.3640757, -0.14056666), (0.03338217, 1.3753548, -0.14942124), (0.03181575, 1.3799008, -0.15292738), (0.031764332, 1.386568, -0.15693907), (0.033562228, 1.3944664, -0.16074696), (0.035860214, 1.4001591, -0.1612621)]
        uniform token type = "linear"
    }

    def BasisCurves "stroke_234_mirror"
    {
        int[] curveVertexCounts = [7]
        point3f[] points = [(0.19418591, 1.354101, -0.13091674), (0.20863001, 1.3640757, -0.14056666), (0.21661782, 1.3753548, -0.14942124), (0.21818425, 1.3799008, -0.15292738), (0.21823567, 1.386568, -0.15693907), (0.21643777, 1.3944664, -0.16074696), (0.21413979, 1.4001591, -0.1612621)]
        uniform token type = "linear"
    }

    def BasisCurves "stroke_242"
    {
        int[] curveVertexCounts = [5]
        point3f[] points = [(0.0107248435, 1.3182529, -0.1704788), (0.010435701, 1.3081616, -0.16907264), (0.0115215015, 1.2963372, -0.17099589), (0.017638713, 1.2487537, -0.19910362), (0.014985594, 1.225178, -0.20090798)]
        uniform token type = "linear"
    }

    def BasisCurves "stroke_242_mirror"
    {
        int[] curveVertexCounts = [5]
        point3f[] points = [(0.23927516, 1.3182529, -0.1704788), (0.2395643, 1.3081616, -0.16907264), (0.2384785, 1.2963372, -0.17099589), (0.23236129, 1.2487537, -0.19910362), (0.23501441, 1.225178, -0.20090798)]
        uniform token type = "linear"
    }

    def BasisCurves "stroke_244"
    {
        int[] curveVertexCounts = [5]
        point3f[] points = [(0.082928285, 1.3724326, -0.12719598), (0.07498314, 1.3680388, -0.12713434), (0.06726144, 1.365869, -0.12851924), (0.061339617, 1.366007, -0.13107716), (0.05423674, 1.3699646, -0.13545439)]
        uniform token type = "linear"
    }

    def BasisCurves "stroke_244_mirror"
    {
        int[] curveVertexCounts = [5]
        point3f[] points = [(0.16707171, 1.3724326, -0.12719598), (0.17501687, 1.3680388, -0.12713434), (0.18273856, 1.365869, -0.12851924), (0.18866038, 1.366007, -0.13107716), (0.19576326, 1.3699646, -0.13545439)]
        uniform token type = "linear"
    }

    def BasisCurves "stroke_250"
    {
        int[] curveVertexCounts = [5]
        point3f[] points = [(0.04998198, 1.3902763, -0.14731635), (0.046522487, 1.3846875, -0.14609282), (0.046060607, 1.3796059, -0.1440712), (0.05001827, 1.3738538, -0.14031453), (0.05638111, 1.369193, -0.13644552)]
        uniform token type = "linear"
    }

    def BasisCurves "stroke_250_mirror"
    {
        int[] curveVertexCounts = [5]
        point3f[] points = [(0.20001802, 1.3902763, -0.14731635), (0.20347752, 1.3846875, -0.14609282), (0.2039394, 1.3796059, -0.1440712), (0.19998173, 1.3738538, -0.14031453), (0.1936189, 1.369193, -0.13644552)]
        uniform token type = "linear"
    }
}

