#usda 1.0
(
    customLayerData = {
        string gate = "2263"
        string source = "scripted skirt (pen_source_scripted)"
    }
    defaultPrim = "Creation"
    metersPerUnit = 1
    upAxis = "Y"
)

def Xform "Creation"
{
    def BasisCurves "waist_left"
    {
        int[] curveVertexCounts = [25]
        point3f[] points = [(-0.0001127153, 0.9527523, 0.17742927), (0.026607014, 0.9527523, 0.17567797), (0.052869562, 0.9527523, 0.17045403), (0.07822557, 0.9527523, 0.16184683), (0.10224118, 0.9527523, 0.15000364), (0.1245055, 0.9527523, 0.1351271), (0.14463755, 0.9527523, 0.117471755), (0.1622929, 0.9527523, 0.09733969), (0.17716944, 0.9527523, 0.07507538), (0.18901263, 0.9527523, 0.051059764), (0.19761984, 0.9527523, 0.025703756), (0.20284379, 0.9527523, -0.0005587906), (0.20459509, 0.9527523, -0.02727852), (0.20284379, 0.9527523, -0.05399825), (0.19761984, 0.9527523, -0.0802608), (0.18901263, 0.9527523, -0.1056168), (0.17716944, 0.9527523, -0.12963241), (0.1622929, 0.9527523, -0.15189673), (0.14463755, 0.9527523, -0.1720288), (0.1245055, 0.9527523, -0.18968414), (0.10224118, 0.9527523, -0.20456068), (0.07822557, 0.9527523, -0.21640387), (0.052869562, 0.9527523, -0.22501107), (0.026607014, 0.9527523, -0.23023501), (-0.0001127153, 0.9527523, -0.23198631)]
        bool primvars:boundary = 1 (
            interpolation = "uniform"
        )
        uniform token type = "linear"
    }

    def BasisCurves "waist_right"
    {
        int[] curveVertexCounts = [25]
        point3f[] points = [(-0.0001127153, 0.9527523, 0.17742927), (-0.026832445, 0.9527523, 0.17567797), (-0.053094994, 0.9527523, 0.17045403), (-0.078451, 0.9527523, 0.16184683), (-0.10246661, 0.9527523, 0.15000364), (-0.12473093, 0.9527523, 0.1351271), (-0.144863, 0.9527523, 0.117471755), (-0.16251834, 0.9527523, 0.09733969), (-0.17739487, 0.9527523, 0.07507538), (-0.18923806, 0.9527523, 0.051059764), (-0.19784527, 0.9527523, 0.025703756), (-0.20306921, 0.9527523, -0.0005587906), (-0.20482051, 0.9527523, -0.02727852), (-0.20306921, 0.9527523, -0.05399825), (-0.19784527, 0.9527523, -0.0802608), (-0.18923806, 0.9527523, -0.1056168), (-0.17739487, 0.9527523, -0.12963241), (-0.16251834, 0.9527523, -0.15189673), (-0.144863, 0.9527523, -0.1720288), (-0.12473093, 0.9527523, -0.18968414), (-0.10246661, 0.9527523, -0.20456068), (-0.078451, 0.9527523, -0.21640387), (-0.053094994, 0.9527523, -0.22501107), (-0.026832445, 0.9527523, -0.23023501), (-0.0001127153, 0.9527523, -0.23198631)]
        bool primvars:boundary = 1 (
            interpolation = "uniform"
        )
        uniform token type = "linear"
    }

    def BasisCurves "hem_left"
    {
        int[] curveVertexCounts = [25]
        point3f[] points = [(-0.00086880475, 0.52492225, 0.20073049), (0.029222146, 0.52492225, 0.19875821), (0.05879823, 0.52492225, 0.19287518), (0.0873534, 0.52492225, 0.183182), (0.11439906, 0.52492225, 0.16984455), (0.13947245, 0.52492225, 0.15309104), (0.16214457, 0.52492225, 0.13320813), (0.18202749, 0.52492225, 0.11053602), (0.198781, 0.52492225, 0.08546262), (0.21211843, 0.52492225, 0.05841696), (0.22181161, 0.52492225, 0.029861793), (0.22769466, 0.52492225, 0.000285706), (0.22966692, 0.52492225, -0.029805245), (0.22769466, 0.52492225, -0.059896197), (0.22181161, 0.52492225, -0.08947228), (0.21211843, 0.52492225, -0.11802745), (0.198781, 0.52492225, -0.14507312), (0.18202749, 0.52492225, -0.17014651), (0.16214457, 0.52492225, -0.19281863), (0.13947245, 0.52492225, -0.21270153), (0.11439906, 0.52492225, -0.22945504), (0.0873534, 0.52492225, -0.24279249), (0.05879823, 0.52492225, -0.25248566), (0.029222146, 0.52492225, -0.2583687), (-0.00086880475, 0.52492225, -0.260341)]
        bool primvars:boundary = 1 (
            interpolation = "uniform"
        )
        uniform token type = "linear"
    }

    def BasisCurves "hem_right"
    {
        int[] curveVertexCounts = [25]
        point3f[] points = [(-0.00086880475, 0.52492225, 0.20073049), (-0.030959755, 0.52492225, 0.19875821), (-0.06053584, 0.52492225, 0.19287518), (-0.08909101, 0.52492225, 0.183182), (-0.11613667, 0.52492225, 0.16984455), (-0.14121006, 0.52492225, 0.15309104), (-0.16388218, 0.52492225, 0.13320813), (-0.1837651, 0.52492225, 0.11053602), (-0.20051861, 0.52492225, 0.08546262), (-0.21385604, 0.52492225, 0.05841696), (-0.22354922, 0.52492225, 0.029861793), (-0.22943227, 0.52492225, 0.000285706), (-0.23140453, 0.52492225, -0.029805245), (-0.22943227, 0.52492225, -0.059896197), (-0.22354922, 0.52492225, -0.08947228), (-0.21385604, 0.52492225, -0.11802745), (-0.20051861, 0.52492225, -0.14507312), (-0.1837651, 0.52492225, -0.17014651), (-0.16388218, 0.52492225, -0.19281863), (-0.14121006, 0.52492225, -0.21270153), (-0.11613667, 0.52492225, -0.22945504), (-0.08909101, 0.52492225, -0.24279249), (-0.06053584, 0.52492225, -0.25248566), (-0.030959755, 0.52492225, -0.2583687), (-0.00086880475, 0.52492225, -0.260341)]
        bool primvars:boundary = 1 (
            interpolation = "uniform"
        )
        uniform token type = "linear"
    }

    def BasisCurves "seam_front"
    {
        int[] curveVertexCounts = [13]
        point3f[] points = [(-0.0001127153, 0.9527523, 0.17742927), (-0.00017572276, 0.9170998, 0.17937104), (-0.00023873022, 0.8814473, 0.18131281), (-0.00030173766, 0.8457948, 0.18325457), (-0.00036474512, 0.8101423, 0.18519634), (-0.00042775256, 0.77448976, 0.18713811), (-0.00049076, 0.73883724, 0.18907988), (-0.0005537675, 0.7031848, 0.19102165), (-0.00061677495, 0.66753227, 0.19296342), (-0.00067978236, 0.63187975, 0.19490519), (-0.0007427898, 0.5962273, 0.19684695), (-0.0008057973, 0.56057477, 0.19878872), (-0.00086880475, 0.52492225, 0.20073049)]
        uniform token type = "linear"
    }

    def BasisCurves "seam_back"
    {
        int[] curveVertexCounts = [13]
        point3f[] points = [(-0.0001127153, 0.9527523, -0.23198631), (-0.00017572276, 0.9170998, -0.2343492), (-0.00023873022, 0.8814473, -0.2367121), (-0.00030173766, 0.8457948, -0.23907498), (-0.00036474512, 0.8101423, -0.24143787), (-0.00042775256, 0.77448976, -0.24380076), (-0.00049076, 0.73883724, -0.24616365), (-0.0005537675, 0.7031848, -0.24852654), (-0.00061677495, 0.66753227, -0.25088942), (-0.00067978236, 0.63187975, -0.25325233), (-0.0007427898, 0.5962273, -0.2556152), (-0.0008057973, 0.56057477, -0.2579781), (-0.00086880475, 0.52492225, -0.260341)]
        uniform token type = "linear"
    }
}

