<?xml version="1.0" encoding="UTF-8"?>
<svg xmlns="http://www.w3.org/2000/svg" xmlns:xlink="http://www.w3.org/1999/xlink" version="1.1" width="1024" height="1024" viewBox="0 0 1024 1024"><defs><symbol id="p0" data-stamp-kind="rect" overflow="visible"><path d="M0 0L1 0L1 1L0 1Z"/></symbol><symbol id="p1" data-stamp-kind="stroke" overflow="visible"><path d="M0.5 0.798077C1 0.663462 0.980769 0.105769 0.625 0L0.5 0.134615L0.375 0C0.019231 0.105769 0 0.663462 0.5 0.798077Z" fill="none" stroke-width="0.01198726" stroke-miterlimit="10"/></symbol><symbol id="p2" data-stamp-kind="ellipse" overflow="visible"><path d="M1 0C1 0.552285 0.552285 1 0 1C-0.552285 1 -1 0.552285 -1 0C-1 -0.552285 -0.552285 -1 0 -1C0.552285 -1 1 -0.552285 1 0Z"/></symbol><clipPath id="p3" clipPathUnits="userSpaceOnUse"><path d="M512 435C762.27 367.62 752.64 88.47 574.57 35.53L512 102.91L449.43 35.53C271.36 88.47 261.73 367.62 512 435Z"/></clipPath><clipPath id="p4" clipPathUnits="userSpaceOnUse"><path d="M585.24 488.2C726.65 705.4 989.16 609.99 984.48 424.27L901.07 385.58L945.81 305.26C840.44 152.26 571.98 229.37 585.24 488.2Z"/></clipPath><clipPath id="p5" clipPathUnits="userSpaceOnUse"><path d="M557.26 574.3C394.4 775.91 566.26 996.08 741.44 934.25L752.46 842.96L842.68 860.69C955.62 713.2 799.34 481.71 557.26 574.3Z"/></clipPath><clipPath id="p6" clipPathUnits="userSpaceOnUse"><path d="M466.74 574.3C224.66 481.71 68.38 713.2 181.32 860.69L271.54 842.96L282.56 934.25C457.74 996.08 629.6 775.91 466.74 574.3Z"/></clipPath><clipPath id="p7" clipPathUnits="userSpaceOnUse"><path d="M438.76 488.2C452.02 229.37 183.56 152.26 78.19 305.26L122.93 385.58L39.52 424.27C34.84 609.99 297.35 705.4 438.76 488.2Z"/></clipPath></defs><path d="M512 435C762.27 367.62 752.64 88.47 574.57 35.53L512 102.91L449.43 35.53C271.36 88.47 261.73 367.62 512 435Z" fill="none" stroke="#a3a098" stroke-width="34" stroke-miterlimit="10"/><path d="M512 435C762.27 367.62 752.64 88.47 574.57 35.53L512 102.91L449.43 35.53C271.36 88.47 261.73 367.62 512 435Z" fill="#b09c98"/><g clip-path="url(#p3)"><g data-stamp-run="0"><use href="#p0" xlink:href="#p0" transform="matrix(54 0 0 38 226.232 33.72)" fill="#e3d9d3"/><use href="#p0" xlink:href="#p0" transform="matrix(54 0 0 38 286.232 33.72)" fill="#d7c0c3"/><use href="#p0" xlink:href="#p0" transform="matrix(54 0 0 38 346.232 33.72)" fill="#d4b7bc"/><use href="#p0" xlink:href="#p0" transform="matrix(54 0 0 38 406.232 33.72)" fill="#d1b4bb"/><use href="#p0" xlink:href="#p0" transform="matrix(54 0 0 38 466.232 33.72)" fill="#dac9c5"/><use href="#p0" xlink:href="#p0" transform="matrix(54 0 0 38 526.232 33.72)" fill="#d4babd"/><use href="#p0" xlink:href="#p0" transform="matrix(54 0 0 38 586.232 33.72)" fill="#d9ccc4"/><use href="#p0" xlink:href="#p0" transform="matrix(54 0 0 38 646.232 33.72)" fill="#ceb7ba"/><use href="#p0" xlink:href="#p0" transform="matrix(54 0 0 38 706.232 33.72)" fill="#e2d5d2"/><use href="#p0" xlink:href="#p0" transform="matrix(54 0 0 38 766.232 33.72)" fill="#dacec5"/><use href="#p0" xlink:href="#p0" transform="matrix(54 0 0 38 196.232 77.72)" fill="#e1d3d0"/><use href="#p0" xlink:href="#p0" transform="matrix(54 0 0 38 256.232 77.72)" fill="#d2b6b8"/><use href="#p0" xlink:href="#p0" transform="matrix(54 0 0 38 316.232 77.72)" fill="#d5bdc4"/><use href="#p0" xlink:href="#p0" transform="matrix(54 0 0 38 376.232 77.72)" fill="#dcd0c8"/><use href="#p0" xlink:href="#p0" transform="matrix(54 0 0 38 436.232 77.72)" fill="#e1d8d1"/><use href="#p0" xlink:href="#p0" transform="matrix(54 0 0 38 496.232 77.72)" fill="#d3b7bb"/><use href="#p0" xlink:href="#p0" transform="matrix(54 0 0 38 556.232 77.72)" fill="#dac9c6"/><use href="#p0" xlink:href="#p0" transform="matrix(54 0 0 38 616.232 77.72)" fill="#d7c5c9"/><use href="#p0" xlink:href="#p0" transform="matrix(54 0 0 38 676.232 77.72)" fill="#d9c7c3"/><use href="#p0" xlink:href="#p0" transform="matrix(54 0 0 38 736.232 77.72)" fill="#dbc7cb"/><use href="#p0" xlink:href="#p0" transform="matrix(54 0 0 38 796.232 77.72)" fill="#e0d2cf"/><use href="#p0" xlink:href="#p0" transform="matrix(54 0 0 38 226.232 121.72)" fill="#dbcfc7"/><use href="#p0" xlink:href="#p0" transform="matrix(54 0 0 38 286.232 121.72)" fill="#dcc6ca"/><use href="#p0" xlink:href="#p0" transform="matrix(54 0 0 38 346.232 121.72)" fill="#dfd3cd"/><use href="#p0" xlink:href="#p0" transform="matrix(54 0 0 38 406.232 121.72)" fill="#ceb9bd"/><use href="#p0" xlink:href="#p0" transform="matrix(54 0 0 38 466.232 121.72)" fill="#e0d6ce"/><use href="#p0" xlink:href="#p0" transform="matrix(54 0 0 38 526.232 121.72)" fill="#d1bdc1"/><use href="#p0" xlink:href="#p0" transform="matrix(54 0 0 38 586.232 121.72)" fill="#ddcfcb"/><use href="#p0" xlink:href="#p0" transform="matrix(54 0 0 38 646.232 121.72)" fill="#d8c5ca"/><use href="#p0" xlink:href="#p0" transform="matrix(54 0 0 38 706.232 121.72)" fill="#d5c2c5"/><use href="#p0" xlink:href="#p0" transform="matrix(54 0 0 38 766.232 121.72)" fill="#ddd3ca"/><use href="#p0" xlink:href="#p0" transform="matrix(54 0 0 38 196.232 165.72)" fill="#dec5cb"/><use href="#p0" xlink:href="#p0" transform="matrix(54 0 0 38 256.232 165.72)" fill="#daccc5"/><use href="#p0" xlink:href="#p0" transform="matrix(54 0 0 38 316.232 165.72)" fill="#dacac5"/><use href="#p0" xlink:href="#p0" transform="matrix(54 0 0 38 376.232 165.72)" fill="#dfc6cc"/><use href="#p0" xlink:href="#p0" transform="matrix(54 0 0 38 436.232 165.72)" fill="#dbc1c5"/><use href="#p0" xlink:href="#p0" transform="matrix(54 0 0 38 496.232 165.72)" fill="#d5b6bd"/><use href="#p0" xlink:href="#p0" transform="matrix(54 0 0 38 556.232 165.72)" fill="#d9cec4"/><use href="#p0" xlink:href="#p0" transform="matrix(54 0 0 38 616.232 165.72)" fill="#d5c1c2"/><use href="#p0" xlink:href="#p0" transform="matrix(54 0 0 38 676.232 165.72)" fill="#d4bec3"/><use href="#p0" xlink:href="#p0" transform="matrix(54 0 0 38 736.232 165.72)" fill="#d8bdc1"/><use href="#p0" xlink:href="#p0" transform="matrix(54 0 0 38 796.232 165.72)" fill="#dfd0cc"/><use href="#p0" xlink:href="#p0" transform="matrix(54 0 0 38 226.232 209.72)" fill="#dec6c8"/><use href="#p0" xlink:href="#p0" transform="matrix(54 0 0 38 286.232 209.72)" fill="#dbc5c9"/><use href="#p0" xlink:href="#p0" transform="matrix(54 0 0 38 346.232 209.72)" fill="#e3dbd3"/><use href="#p0" xlink:href="#p0" transform="matrix(54 0 0 38 406.232 209.72)" fill="#dfc3ca"/><use href="#p0" xlink:href="#p0" transform="matrix(54 0 0 38 466.232 209.72)" fill="#dfd3ce"/><use href="#p0" xlink:href="#p0" transform="matrix(54 0 0 38 526.232 209.72)" fill="#dfd6cd"/><use href="#p0" xlink:href="#p0" transform="matrix(54 0 0 38 586.232 209.72)" fill="#d8b5ba"/><use href="#p0" xlink:href="#p0" transform="matrix(54 0 0 38 646.232 209.72)" fill="#dcc8cb"/><use href="#p0" xlink:href="#p0" transform="matrix(54 0 0 38 706.232 209.72)" fill="#d5c0c3"/><use href="#p0" xlink:href="#p0" transform="matrix(54 0 0 38 766.232 209.72)" fill="#e0d1ce"/><use href="#p0" xlink:href="#p0" transform="matrix(54 0 0 38 196.232 253.72)" fill="#dfd0cd"/><use href="#p0" xlink:href="#p0" transform="matrix(54 0 0 38 256.232 253.72)" fill="#d7bfc2"/><use href="#p0" xlink:href="#p0" transform="matrix(54 0 0 38 316.232 253.72)" fill="#dbc6c9"/><use href="#p0" xlink:href="#p0" transform="matrix(54 0 0 38 376.232 253.72)" fill="#d2babc"/><use href="#p0" xlink:href="#p0" transform="matrix(54 0 0 38 436.232 253.72)" fill="#d8c3c5"/><use href="#p0" xlink:href="#p0" transform="matrix(54 0 0 38 496.232 253.72)" fill="#d9cbc3"/><use href="#p0" xlink:href="#p0" transform="matrix(54 0 0 38 556.232 253.72)" fill="#d5bdc2"/><use href="#p0" xlink:href="#p0" transform="matrix(54 0 0 38 616.232 253.72)" fill="#dbcec7"/><use href="#p0" xlink:href="#p0" transform="matrix(54 0 0 38 676.232 253.72)" fill="#d7b7b9"/><use href="#p0" xlink:href="#p0" transform="matrix(54 0 0 38 736.232 253.72)" fill="#ddcecb"/><use href="#p0" xlink:href="#p0" transform="matrix(54 0 0 38 796.232 253.72)" fill="#ded1cb"/><use href="#p0" xlink:href="#p0" transform="matrix(54 0 0 38 226.232 297.72)" fill="#ddc3c5"/><use href="#p0" xlink:href="#p0" transform="matrix(54 0 0 38 286.232 297.72)" fill="#d8bec2"/><use href="#p0" xlink:href="#p0" transform="matrix(54 0 0 38 346.232 297.72)" fill="#d9c9c3"/><use href="#p0" xlink:href="#p0" transform="matrix(54 0 0 38 406.232 297.72)" fill="#ddd1cb"/><use href="#p0" xlink:href="#p0" transform="matrix(54 0 0 38 466.232 297.72)" fill="#dacdc5"/><use href="#p0" xlink:href="#p0" transform="matrix(54 0 0 38 526.232 297.72)" fill="#dacdc5"/><use href="#p0" xlink:href="#p0" transform="matrix(54 0 0 38 586.232 297.72)" fill="#d7bfc2"/><use href="#p0" xlink:href="#p0" transform="matrix(54 0 0 38 646.232 297.72)" fill="#d6bfc1"/><use href="#p0" xlink:href="#p0" transform="matrix(54 0 0 38 706.232 297.72)" fill="#e3d7d3"/><use href="#p0" xlink:href="#p0" transform="matrix(54 0 0 38 766.232 297.72)" fill="#dbcbc6"/><use href="#p0" xlink:href="#p0" transform="matrix(54 0 0 38 196.232 341.72)" fill="#e1d4d1"/><use href="#p0" xlink:href="#p0" transform="matrix(54 0 0 38 256.232 341.72)" fill="#d9c2c6"/><use href="#p0" xlink:href="#p0" transform="matrix(54 0 0 38 316.232 341.72)" fill="#ded3cb"/><use href="#p0" xlink:href="#p0" transform="matrix(54 0 0 38 376.232 341.72)" fill="#e1c8cb"/><use href="#p0" xlink:href="#p0" transform="matrix(54 0 0 38 436.232 341.72)" fill="#d5b9bc"/><use href="#p0" xlink:href="#p0" transform="matrix(54 0 0 38 496.232 341.72)" fill="#dbbdc1"/><use href="#p0" xlink:href="#p0" transform="matrix(54 0 0 38 556.232 341.72)" fill="#e1d7d0"/><use href="#p0" xlink:href="#p0" transform="matrix(54 0 0 38 616.232 341.72)" fill="#dec1c7"/><use href="#p0" xlink:href="#p0" transform="matrix(54 0 0 38 676.232 341.72)" fill="#d9c8c3"/><use href="#p0" xlink:href="#p0" transform="matrix(54 0 0 38 736.232 341.72)" fill="#dfc6c7"/><use href="#p0" xlink:href="#p0" transform="matrix(54 0 0 38 796.232 341.72)" fill="#dcd0c8"/><use href="#p0" xlink:href="#p0" transform="matrix(54 0 0 38 226.232 385.72)" fill="#dbc5ca"/><use href="#p0" xlink:href="#p0" transform="matrix(54 0 0 38 286.232 385.72)" fill="#dbbdc4"/><use href="#p0" xlink:href="#p0" transform="matrix(54 0 0 38 346.232 385.72)" fill="#e3d6d3"/><use href="#p0" xlink:href="#p0" transform="matrix(54 0 0 38 406.232 385.72)" fill="#e1c6c9"/><use href="#p0" xlink:href="#p0" transform="matrix(54 0 0 38 466.232 385.72)" fill="#d8c9c2"/><use href="#p0" xlink:href="#p0" transform="matrix(54 0 0 38 526.232 385.72)" fill="#e4c9cc"/><use href="#p0" xlink:href="#p0" transform="matrix(54 0 0 38 586.232 385.72)" fill="#ddcacd"/><use href="#p0" xlink:href="#p0" transform="matrix(54 0 0 38 646.232 385.72)" fill="#d8bcc0"/><use href="#p0" xlink:href="#p0" transform="matrix(54 0 0 38 706.232 385.72)" fill="#e0ccd0"/><use href="#p0" xlink:href="#p0" transform="matrix(54 0 0 38 766.232 385.72)" fill="#dcc1c7"/><use href="#p0" xlink:href="#p0" transform="matrix(54 0 0 38 196.232 429.72)" fill="#dfbec6"/><use href="#p0" xlink:href="#p0" transform="matrix(54 0 0 38 256.232 429.72)" fill="#e1d4d0"/><use href="#p0" xlink:href="#p0" transform="matrix(54 0 0 38 316.232 429.72)" fill="#e1cacf"/><use href="#p0" xlink:href="#p0" transform="matrix(54 0 0 38 376.232 429.72)" fill="#e1d7d0"/><use href="#p0" xlink:href="#p0" transform="matrix(54 0 0 38 436.232 429.72)" fill="#dec4c6"/><use href="#p0" xlink:href="#p0" transform="matrix(54 0 0 38 496.232 429.72)" fill="#d8ccc1"/><use href="#p0" xlink:href="#p0" transform="matrix(54 0 0 38 556.232 429.72)" fill="#ddc7ca"/><use href="#p0" xlink:href="#p0" transform="matrix(54 0 0 38 616.232 429.72)" fill="#dfd5cc"/><use href="#p0" xlink:href="#p0" transform="matrix(54 0 0 38 676.232 429.72)" fill="#e0d3cf"/><use href="#p0" xlink:href="#p0" transform="matrix(54 0 0 38 736.232 429.72)" fill="#dec5c7"/><use href="#p0" xlink:href="#p0" transform="matrix(54 0 0 38 796.232 429.72)" fill="#dababd"/><use href="#p0" xlink:href="#p0" transform="matrix(54 0 0 38 226.232 473.72)" fill="#ded2cc"/><use href="#p0" xlink:href="#p0" transform="matrix(54 0 0 38 286.232 473.72)" fill="#debec1"/><use href="#p0" xlink:href="#p0" transform="matrix(54 0 0 38 346.232 473.72)" fill="#e1d7d0"/><use href="#p0" xlink:href="#p0" transform="matrix(54 0 0 38 406.232 473.72)" fill="#dfc4c7"/><use href="#p0" xlink:href="#p0" transform="matrix(54 0 0 38 466.232 473.72)" fill="#e0d4ce"/><use href="#p0" xlink:href="#p0" transform="matrix(54 0 0 38 526.232 473.72)" fill="#e3d8d3"/><use href="#p0" xlink:href="#p0" transform="matrix(54 0 0 38 586.232 473.72)" fill="#e0d6cf"/><use href="#p0" xlink:href="#p0" transform="matrix(54 0 0 38 646.232 473.72)" fill="#ddcdca"/><use href="#p0" xlink:href="#p0" transform="matrix(54 0 0 38 706.232 473.72)" fill="#dbc3c5"/><use href="#p0" xlink:href="#p0" transform="matrix(54 0 0 38 766.232 473.72)" fill="#dbbac1"/></g></g><path d="M512 435C762.27 367.62 752.64 88.47 574.57 35.53L512 102.91L449.43 35.53C271.36 88.47 261.73 367.62 512 435Z" fill="none" stroke="#8c8980" stroke-width="6" stroke-miterlimit="10"/><path d="M585.24 488.2C726.65 705.4 989.16 609.99 984.48 424.27L901.07 385.58L945.81 305.26C840.44 152.26 571.98 229.37 585.24 488.2Z" fill="none" stroke="#a3a098" stroke-width="34" stroke-miterlimit="10"/><path d="M585.24 488.2C726.65 705.4 989.16 609.99 984.48 424.27L901.07 385.58L945.81 305.26C840.44 152.26 571.98 229.37 585.24 488.2Z" fill="#b09c98"/><g clip-path="url(#p4)"><g data-stamp-run="1"><use href="#p0" xlink:href="#p0" transform="matrix(16.686918 51.357052 -36.140148 11.742646 878.564142 92.421833)" fill="#d7bbc0"/><use href="#p0" xlink:href="#p0" transform="matrix(16.686918 51.357052 -36.140148 11.742646 897.105162 149.485224)" fill="#dfd1cd"/><use href="#p0" xlink:href="#p0" transform="matrix(16.686918 51.357052 -36.140148 11.742646 915.646181 206.548615)" fill="#d8cac2"/><use href="#p0" xlink:href="#p0" transform="matrix(16.686918 51.357052 -36.140148 11.742646 934.187201 263.612006)" fill="#dacec6"/><use href="#p0" xlink:href="#p0" transform="matrix(16.686918 51.357052 -36.140148 11.742646 952.728221 320.675397)" fill="#d9cdc3"/><use href="#p0" xlink:href="#p0" transform="matrix(16.686918 51.357052 -36.140148 11.742646 971.26924 377.738788)" fill="#d9c1c7"/><use href="#p0" xlink:href="#p0" transform="matrix(16.686918 51.357052 -36.140148 11.742646 989.81026 434.802179)" fill="#dfd5cd"/><use href="#p0" xlink:href="#p0" transform="matrix(16.686918 51.357052 -36.140148 11.742646 1008.35128 491.86557)" fill="#d0babd"/><use href="#p0" xlink:href="#p0" transform="matrix(16.686918 51.357052 -36.140148 11.742646 1026.892299 548.928961)" fill="#dfd5cc"/><use href="#p0" xlink:href="#p0" transform="matrix(16.686918 51.357052 -36.140148 11.742646 1045.433319 605.992352)" fill="#e3dad3"/><use href="#p0" xlink:href="#p0" transform="matrix(16.686918 51.357052 -36.140148 11.742646 827.447146 77.486886)" fill="#e1d6d1"/><use href="#p0" xlink:href="#p0" transform="matrix(16.686918 51.357052 -36.140148 11.742646 845.988165 134.550277)" fill="#d8cbc2"/><use href="#p0" xlink:href="#p0" transform="matrix(16.686918 51.357052 -36.140148 11.742646 864.529185 191.613668)" fill="#dcd0c8"/><use href="#p0" xlink:href="#p0" transform="matrix(16.686918 51.357052 -36.140148 11.742646 883.070205 248.677059)" fill="#cfbbbc"/><use href="#p0" xlink:href="#p0" transform="matrix(16.686918 51.357052 -36.140148 11.742646 901.611224 305.74045)" fill="#e1d7cf"/><use href="#p0" xlink:href="#p0" transform="matrix(16.686918 51.357052 -36.140148 11.742646 920.152244 362.803841)" fill="#d4b5bc"/><use href="#p0" xlink:href="#p0" transform="matrix(16.686918 51.357052 -36.140148 11.742646 938.693264 419.867232)" fill="#dacec4"/><use href="#p0" xlink:href="#p0" transform="matrix(16.686918 51.357052 -36.140148 11.742646 957.234283 476.930622)" fill="#d8bdc0"/><use href="#p0" xlink:href="#p0" transform="matrix(16.686918 51.357052 -36.140148 11.742646 975.775303 533.994013)" fill="#d8c9c2"/><use href="#p0" xlink:href="#p0" transform="matrix(16.686918 51.357052 -36.140148 11.742646 994.316323 591.057404)" fill="#dac5ca"/><use href="#p0" xlink:href="#p0" transform="matrix(16.686918 51.357052 -36.140148 11.742646 1012.857342 648.120795)" fill="#dbc7ca"/><use href="#p0" xlink:href="#p0" transform="matrix(16.686918 51.357052 -36.140148 11.742646 794.871169 119.615329)" fill="#d3babf"/><use href="#p0" xlink:href="#p0" transform="matrix(16.686918 51.357052 -36.140148 11.742646 813.412188 176.67872)" fill="#d8cdc3"/><use href="#p0" xlink:href="#p0" transform="matrix(16.686918 51.357052 -36.140148 11.742646 831.953208 233.742111)" fill="#dacec5"/><use href="#p0" xlink:href="#p0" transform="matrix(16.686918 51.357052 -36.140148 11.742646 850.494228 290.805502)" fill="#d0babe"/><use href="#p0" xlink:href="#p0" transform="matrix(16.686918 51.357052 -36.140148 11.742646 869.035247 347.868893)" fill="#d6bbc1"/><use href="#p0" xlink:href="#p0" transform="matrix(16.686918 51.357052 -36.140148 11.742646 887.576267 404.932284)" fill="#d6bec1"/><use href="#p0" xlink:href="#p0" transform="matrix(16.686918 51.357052 -36.140148 11.742646 906.117287 461.995675)" fill="#e1d4d0"/><use href="#p0" xlink:href="#p0" transform="matrix(16.686918 51.357052 -36.140148 11.742646 924.658306 519.059066)" fill="#cfb8bd"/><use href="#p0" xlink:href="#p0" transform="matrix(16.686918 51.357052 -36.140148 11.742646 943.199326 576.122457)" fill="#dfd1cd"/><use href="#p0" xlink:href="#p0" transform="matrix(16.686918 51.357052 -36.140148 11.742646 961.740346 633.185848)" fill="#e3d6d3"/><use href="#p0" xlink:href="#p0" transform="matrix(16.686918 51.357052 -36.140148 11.742646 743.754172 104.680381)" fill="#dfd2cd"/><use href="#p0" xlink:href="#p0" transform="matrix(16.686918 51.357052 -36.140148 11.742646 762.295192 161.743772)" fill="#dfd5cd"/><use href="#p0" xlink:href="#p0" transform="matrix(16.686918 51.357052 -36.140148 11.742646 780.836212 218.807163)" fill="#d9ccc3"/><use href="#p0" xlink:href="#p0" transform="matrix(16.686918 51.357052 -36.140148 11.742646 799.377231 275.870554)" fill="#dcd2c9"/><use href="#p0" xlink:href="#p0" transform="matrix(16.686918 51.357052 -36.140148 11.742646 817.918251 332.933945)" fill="#d7b9c1"/><use href="#p0" xlink:href="#p0" transform="matrix(16.686918 51.357052 -36.140148 11.742646 836.45927 389.997336)" fill="#d9bdbf"/><use href="#p0" xlink:href="#p0" transform="matrix(16.686918 51.357052 -36.140148 11.742646 855.00029 447.060727)" fill="#dabfc4"/><use href="#p0" xlink:href="#p0" transform="matrix(16.686918 51.357052 -36.140148 11.742646 873.54131 504.124118)" fill="#dcc6c8"/><use href="#p0" xlink:href="#p0" transform="matrix(16.686918 51.357052 -36.140148 11.742646 892.082329 561.187509)" fill="#dfc6ca"/><use href="#p0" xlink:href="#p0" transform="matrix(16.686918 51.357052 -36.140148 11.742646 910.623349 618.2509)" fill="#dcc0c6"/><use href="#p0" xlink:href="#p0" transform="matrix(16.686918 51.357052 -36.140148 11.742646 929.164369 675.314291)" fill="#d7c6c1"/><use href="#p0" xlink:href="#p0" transform="matrix(16.686918 51.357052 -36.140148 11.742646 711.178195 146.808824)" fill="#d4bfc2"/><use href="#p0" xlink:href="#p0" transform="matrix(16.686918 51.357052 -36.140148 11.742646 729.719215 203.872215)" fill="#dcd0c8"/><use href="#p0" xlink:href="#p0" transform="matrix(16.686918 51.357052 -36.140148 11.742646 748.260235 260.935606)" fill="#ddcacf"/><use href="#p0" xlink:href="#p0" transform="matrix(16.686918 51.357052 -36.140148 11.742646 766.801254 317.998997)" fill="#dfc2ca"/><use href="#p0" xlink:href="#p0" transform="matrix(16.686918 51.357052 -36.140148 11.742646 785.342274 375.062388)" fill="#dcc3c9"/><use href="#p0" xlink:href="#p0" transform="matrix(16.686918 51.357052 -36.140148 11.742646 803.883294 432.125779)" fill="#e3d9d3"/><use href="#p0" xlink:href="#p0" transform="matrix(16.686918 51.357052 -36.140148 11.742646 822.424313 489.18917)" fill="#e2d5d2"/><use href="#p0" xlink:href="#p0" transform="matrix(16.686918 51.357052 -36.140148 11.742646 840.965333 546.252561)" fill="#ddcfca"/><use href="#p0" xlink:href="#p0" transform="matrix(16.686918 51.357052 -36.140148 11.742646 859.506353 603.315952)" fill="#d9babe"/><use href="#p0" xlink:href="#p0" transform="matrix(16.686918 51.357052 -36.140148 11.742646 878.047372 660.379343)" fill="#dccec8"/><use href="#p0" xlink:href="#p0" transform="matrix(16.686918 51.357052 -36.140148 11.742646 660.061199 131.873877)" fill="#d8c7c2"/><use href="#p0" xlink:href="#p0" transform="matrix(16.686918 51.357052 -36.140148 11.742646 678.602218 188.937268)" fill="#dfd3ce"/><use href="#p0" xlink:href="#p0" transform="matrix(16.686918 51.357052 -36.140148 11.742646 697.143238 246.000659)" fill="#d7cac1"/><use href="#p0" xlink:href="#p0" transform="matrix(16.686918 51.357052 -36.140148 11.742646 715.684258 303.06405)" fill="#d8ccc2"/><use href="#p0" xlink:href="#p0" transform="matrix(16.686918 51.357052 -36.140148 11.742646 734.225277 360.127441)" fill="#d8cbc1"/><use href="#p0" xlink:href="#p0" transform="matrix(16.686918 51.357052 -36.140148 11.742646 752.766297 417.190832)" fill="#ddcbce"/><use href="#p0" xlink:href="#p0" transform="matrix(16.686918 51.357052 -36.140148 11.742646 771.307317 474.254223)" fill="#dacdc6"/><use href="#p0" xlink:href="#p0" transform="matrix(16.686918 51.357052 -36.140148 11.742646 789.848336 531.317613)" fill="#d5bbc2"/><use href="#p0" xlink:href="#p0" transform="matrix(16.686918 51.357052 -36.140148 11.742646 808.389356 588.381004)" fill="#ddcace"/><use href="#p0" xlink:href="#p0" transform="matrix(16.686918 51.357052 -36.140148 11.742646 826.930376 645.444395)" fill="#dbcfc6"/><use href="#p0" xlink:href="#p0" transform="matrix(16.686918 51.357052 -36.140148 11.742646 845.471395 702.507786)" fill="#e1d6d1"/><use href="#p0" xlink:href="#p0" transform="matrix(16.686918 51.357052 -36.140148 11.742646 627.485222 174.00232)" fill="#dfd1cd"/><use href="#p0" xlink:href="#p0" transform="matrix(16.686918 51.357052 -36.140148 11.742646 646.026242 231.065711)" fill="#d9bcc3"/><use href="#p0" xlink:href="#p0" transform="matrix(16.686918 51.357052 -36.140148 11.742646 664.567261 288.129102)" fill="#d7bbbf"/><use href="#p0" xlink:href="#p0" transform="matrix(16.686918 51.357052 -36.140148 11.742646 683.108281 345.192493)" fill="#dacbc5"/><use href="#p0" xlink:href="#p0" transform="matrix(16.686918 51.357052 -36.140148 11.742646 701.649301 402.255884)" fill="#d7bec2"/><use href="#p0" xlink:href="#p0" transform="matrix(16.686918 51.357052 -36.140148 11.742646 720.19032 459.319275)" fill="#e2d7d2"/><use href="#p0" xlink:href="#p0" transform="matrix(16.686918 51.357052 -36.140148 11.742646 738.73134 516.382666)" fill="#d9bfc3"/><use href="#p0" xlink:href="#p0" transform="matrix(16.686918 51.357052 -36.140148 11.742646 757.27236 573.446057)" fill="#e1d4d1"/><use href="#p0" xlink:href="#p0" transform="matrix(16.686918 51.357052 -36.140148 11.742646 775.813379 630.509448)" fill="#dcc6cc"/><use href="#p0" xlink:href="#p0" transform="matrix(16.686918 51.357052 -36.140148 11.742646 794.354399 687.572839)" fill="#e2d7d2"/><use href="#p0" xlink:href="#p0" transform="matrix(16.686918 51.357052 -36.140148 11.742646 576.368225 159.067372)" fill="#ddcec9"/><use href="#p0" xlink:href="#p0" transform="matrix(16.686918 51.357052 -36.140148 11.742646 594.909245 216.130763)" fill="#d6bac1"/><use href="#p0" xlink:href="#p0" transform="matrix(16.686918 51.357052 -36.140148 11.742646 613.450265 273.194154)" fill="#d8bbc0"/><use href="#p0" xlink:href="#p0" transform="matrix(16.686918 51.357052 -36.140148 11.742646 631.991284 330.257545)" fill="#d8c8c2"/><use href="#p0" xlink:href="#p0" transform="matrix(16.686918 51.357052 -36.140148 11.742646 650.532304 387.320936)" fill="#ddd0c9"/><use href="#p0" xlink:href="#p0" transform="matrix(16.686918 51.357052 -36.140148 11.742646 669.073324 444.384327)" fill="#e3c7cb"/><use href="#p0" xlink:href="#p0" transform="matrix(16.686918 51.357052 -36.140148 11.742646 687.614343 501.447718)" fill="#dbcec7"/><use href="#p0" xlink:href="#p0" transform="matrix(16.686918 51.357052 -36.140148 11.742646 706.155363 558.511109)" fill="#e3d8d2"/><use href="#p0" xlink:href="#p0" transform="matrix(16.686918 51.357052 -36.140148 11.742646 724.696383 615.5745)" fill="#ded3cb"/><use href="#p0" xlink:href="#p0" transform="matrix(16.686918 51.357052 -36.140148 11.742646 743.237402 672.637891)" fill="#d9cbc3"/><use href="#p0" xlink:href="#p0" transform="matrix(16.686918 51.357052 -36.140148 11.742646 761.778422 729.701282)" fill="#e2d8d2"/><use href="#p0" xlink:href="#p0" transform="matrix(16.686918 51.357052 -36.140148 11.742646 543.792248 201.195815)" fill="#e2d4d1"/><use href="#p0" xlink:href="#p0" transform="matrix(16.686918 51.357052 -36.140148 11.742646 562.333268 258.259206)" fill="#dfbfc5"/><use href="#p0" xlink:href="#p0" transform="matrix(16.686918 51.357052 -36.140148 11.742646 580.874288 315.322597)" fill="#dec6c9"/><use href="#p0" xlink:href="#p0" transform="matrix(16.686918 51.357052 -36.140148 11.742646 599.415307 372.385988)" fill="#ddc0c4"/><use href="#p0" xlink:href="#p0" transform="matrix(16.686918 51.357052 -36.140148 11.742646 617.956327 429.449379)" fill="#e3d8d3"/><use href="#p0" xlink:href="#p0" transform="matrix(16.686918 51.357052 -36.140148 11.742646 636.497347 486.51277)" fill="#e0c7cb"/><use href="#p0" xlink:href="#p0" transform="matrix(16.686918 51.357052 -36.140148 11.742646 655.038366 543.576161)" fill="#ddd1ca"/><use href="#p0" xlink:href="#p0" transform="matrix(16.686918 51.357052 -36.140148 11.742646 673.579386 600.639552)" fill="#dfc4c7"/><use href="#p0" xlink:href="#p0" transform="matrix(16.686918 51.357052 -36.140148 11.742646 692.120406 657.702943)" fill="#e0c5cb"/><use href="#p0" xlink:href="#p0" transform="matrix(16.686918 51.357052 -36.140148 11.742646 710.661425 714.766334)" fill="#e1c6c9"/><use href="#p0" xlink:href="#p0" transform="matrix(16.686918 51.357052 -36.140148 11.742646 492.675252 186.260868)" fill="#d7c6c1"/><use href="#p0" xlink:href="#p0" transform="matrix(16.686918 51.357052 -36.140148 11.742646 511.216272 243.324259)" fill="#dcc2c7"/><use href="#p0" xlink:href="#p0" transform="matrix(16.686918 51.357052 -36.140148 11.742646 529.757291 300.38765)" fill="#dec0c8"/><use href="#p0" xlink:href="#p0" transform="matrix(16.686918 51.357052 -36.140148 11.742646 548.298311 357.451041)" fill="#e0c9cb"/><use href="#p0" xlink:href="#p0" transform="matrix(16.686918 51.357052 -36.140148 11.742646 566.839331 414.514432)" fill="#ddc6c8"/><use href="#p0" xlink:href="#p0" transform="matrix(16.686918 51.357052 -36.140148 11.742646 585.38035 471.577823)" fill="#dabdbf"/><use href="#p0" xlink:href="#p0" transform="matrix(16.686918 51.357052 -36.140148 11.742646 603.92137 528.641214)" fill="#dac4c8"/><use href="#p0" xlink:href="#p0" transform="matrix(16.686918 51.357052 -36.140148 11.742646 622.46239 585.704605)" fill="#decace"/><use href="#p0" xlink:href="#p0" transform="matrix(16.686918 51.357052 -36.140148 11.742646 641.003409 642.767995)" fill="#dfd4cd"/><use href="#p0" xlink:href="#p0" transform="matrix(16.686918 51.357052 -36.140148 11.742646 659.544429 699.831386)" fill="#d7bec2"/><use href="#p0" xlink:href="#p0" transform="matrix(16.686918 51.357052 -36.140148 11.742646 678.085449 756.894777)" fill="#e0c4cb"/><use href="#p0" xlink:href="#p0" transform="matrix(16.686918 51.357052 -36.140148 11.742646 460.099275 228.389311)" fill="#d9c9c4"/><use href="#p0" xlink:href="#p0" transform="matrix(16.686918 51.357052 -36.140148 11.742646 478.640295 285.452702)" fill="#e2d9d2"/><use href="#p0" xlink:href="#p0" transform="matrix(16.686918 51.357052 -36.140148 11.742646 497.181314 342.516093)" fill="#dacac5"/><use href="#p0" xlink:href="#p0" transform="matrix(16.686918 51.357052 -36.140148 11.742646 515.722334 399.579484)" fill="#dccdc9"/><use href="#p0" xlink:href="#p0" transform="matrix(16.686918 51.357052 -36.140148 11.742646 534.263354 456.642875)" fill="#dbcbc6"/><use href="#p0" xlink:href="#p0" transform="matrix(16.686918 51.357052 -36.140148 11.742646 552.804373 513.706266)" fill="#dac9c5"/><use href="#p0" xlink:href="#p0" transform="matrix(16.686918 51.357052 -36.140148 11.742646 571.345393 570.769657)" fill="#d6bcc0"/><use href="#p0" xlink:href="#p0" transform="matrix(16.686918 51.357052 -36.140148 11.742646 589.886413 627.833048)" fill="#dababf"/><use href="#p0" xlink:href="#p0" transform="matrix(16.686918 51.357052 -36.140148 11.742646 608.427432 684.896439)" fill="#dacac5"/><use href="#p0" xlink:href="#p0" transform="matrix(16.686918 51.357052 -36.140148 11.742646 626.968452 741.95983)" fill="#e1c1c4"/></g></g><path d="M585.24 488.2C726.65 705.4 989.16 609.99 984.48 424.27L901.07 385.58L945.81 305.26C840.44 152.26 571.98 229.37 585.24 488.2Z" fill="none" stroke="#8c8980" stroke-width="6" stroke-miterlimit="10"/><path d="M557.26 574.3C394.4 775.91 566.26 996.08 741.44 934.25L752.46 842.96L842.68 860.69C955.62 713.2 799.34 481.71 557.26 574.3Z" fill="none" stroke="#a3a098" stroke-width="34" stroke-miterlimit="10"/><path d="M557.26 574.3C394.4 775.91 566.26 996.08 741.44 934.25L752.46 842.96L842.68 860.69C955.62 713.2 799.34 481.71 557.26 574.3Z" fill="#b09c98"/><g clip-path="url(#p5)"><g data-stamp-run="2"><use href="#p0" xlink:href="#p0" transform="matrix(-43.686918 31.740404 -22.33584 -30.742646 1024.317099 730.966432)" fill="#d9c8ca"/><use href="#p0" xlink:href="#p0" transform="matrix(-43.686918 31.740404 -22.33584 -30.742646 975.776079 766.233547)" fill="#dcc4c8"/><use href="#p0" xlink:href="#p0" transform="matrix(-43.686918 31.740404 -22.33584 -30.742646 927.23506 801.500662)" fill="#d4babf"/><use href="#p0" xlink:href="#p0" transform="matrix(-43.686918 31.740404 -22.33584 -30.742646 878.69404 836.767778)" fill="#d5c2c5"/><use href="#p0" xlink:href="#p0" transform="matrix(-43.686918 31.740404 -22.33584 -30.742646 830.15302 872.034893)" fill="#d8bac0"/><use href="#p0" xlink:href="#p0" transform="matrix(-43.686918 31.740404 -22.33584 -30.742646 781.612001 907.302008)" fill="#d9c8cb"/><use href="#p0" xlink:href="#p0" transform="matrix(-43.686918 31.740404 -22.33584 -30.742646 733.070981 942.569123)" fill="#ddc4c7"/><use href="#p0" xlink:href="#p0" transform="matrix(-43.686918 31.740404 -22.33584 -30.742646 684.529961 977.836238)" fill="#d7c7cb"/><use href="#p0" xlink:href="#p0" transform="matrix(-43.686918 31.740404 -22.33584 -30.742646 635.988942 1013.103353)" fill="#d8babf"/><use href="#p0" xlink:href="#p0" transform="matrix(-43.686918 31.740404 -22.33584 -30.742646 587.447922 1048.370468)" fill="#ded2cc"/><use href="#p0" xlink:href="#p0" transform="matrix(-43.686918 31.740404 -22.33584 -30.742646 1022.725058 677.736127)" fill="#d8cac2"/><use href="#p0" xlink:href="#p0" transform="matrix(-43.686918 31.740404 -22.33584 -30.742646 974.184038 713.003242)" fill="#dbccc6"/><use href="#p0" xlink:href="#p0" transform="matrix(-43.686918 31.740404 -22.33584 -30.742646 925.643018 748.270357)" fill="#d9bcc0"/><use href="#p0" xlink:href="#p0" transform="matrix(-43.686918 31.740404 -22.33584 -30.742646 877.101999 783.537472)" fill="#ded4cc"/><use href="#p0" xlink:href="#p0" transform="matrix(-43.686918 31.740404 -22.33584 -30.742646 828.560979 818.804587)" fill="#e1d6d0"/><use href="#p0" xlink:href="#p0" transform="matrix(-43.686918 31.740404 -22.33584 -30.742646 780.019959 854.071702)" fill="#dcc4ca"/><use href="#p0" xlink:href="#p0" transform="matrix(-43.686918 31.740404 -22.33584 -30.742646 731.47894 889.338818)" fill="#d3b2b8"/><use href="#p0" xlink:href="#p0" transform="matrix(-43.686918 31.740404 -22.33584 -30.742646 682.93792 924.605933)" fill="#d9bac1"/><use href="#p0" xlink:href="#p0" transform="matrix(-43.686918 31.740404 -22.33584 -30.742646 634.3969 959.873048)" fill="#d0b8bd"/><use href="#p0" xlink:href="#p0" transform="matrix(-43.686918 31.740404 -22.33584 -30.742646 585.855881 995.140163)" fill="#dbc2c4"/><use href="#p0" xlink:href="#p0" transform="matrix(-43.686918 31.740404 -22.33584 -30.742646 537.314861 1030.407278)" fill="#e1d4d1"/><use href="#p0" xlink:href="#p0" transform="matrix(-43.686918 31.740404 -22.33584 -30.742646 972.591997 659.772937)" fill="#d8c2c5"/><use href="#p0" xlink:href="#p0" transform="matrix(-43.686918 31.740404 -22.33584 -30.742646 924.050977 695.040052)" fill="#dfd1cd"/><use href="#p0" xlink:href="#p0" transform="matrix(-43.686918 31.740404 -22.33584 -30.742646 875.509957 730.307167)" fill="#d0b8bb"/><use href="#p0" xlink:href="#p0" transform="matrix(-43.686918 31.740404 -22.33584 -30.742646 826.968938 765.574282)" fill="#d8c1c2"/><use href="#p0" xlink:href="#p0" transform="matrix(-43.686918 31.740404 -22.33584 -30.742646 778.427918 800.841397)" fill="#d8c1c5"/><use href="#p0" xlink:href="#p0" transform="matrix(-43.686918 31.740404 -22.33584 -30.742646 729.886898 836.108512)" fill="#dac0c7"/><use href="#p0" xlink:href="#p0" transform="matrix(-43.686918 31.740404 -22.33584 -30.742646 681.345879 871.375627)" fill="#d9c3c6"/><use href="#p0" xlink:href="#p0" transform="matrix(-43.686918 31.740404 -22.33584 -30.742646 632.804859 906.642743)" fill="#d8ccc1"/><use href="#p0" xlink:href="#p0" transform="matrix(-43.686918 31.740404 -22.33584 -30.742646 584.263839 941.909858)" fill="#ded4cc"/><use href="#p0" xlink:href="#p0" transform="matrix(-43.686918 31.740404 -22.33584 -30.742646 535.72282 977.176973)" fill="#dcd1c8"/><use href="#p0" xlink:href="#p0" transform="matrix(-43.686918 31.740404 -22.33584 -30.742646 970.999955 606.542631)" fill="#e3d7d3"/><use href="#p0" xlink:href="#p0" transform="matrix(-43.686918 31.740404 -22.33584 -30.742646 922.458936 641.809746)" fill="#dccbc8"/><use href="#p0" xlink:href="#p0" transform="matrix(-43.686918 31.740404 -22.33584 -30.742646 873.917916 677.076862)" fill="#e1d4d0"/><use href="#p0" xlink:href="#p0" transform="matrix(-43.686918 31.740404 -22.33584 -30.742646 825.376896 712.343977)" fill="#dbbfc6"/><use href="#p0" xlink:href="#p0" transform="matrix(-43.686918 31.740404 -22.33584 -30.742646 776.835877 747.611092)" fill="#dec2c6"/><use href="#p0" xlink:href="#p0" transform="matrix(-43.686918 31.740404 -22.33584 -30.742646 728.294857 782.878207)" fill="#d8c4c6"/><use href="#p0" xlink:href="#p0" transform="matrix(-43.686918 31.740404 -22.33584 -30.742646 679.753837 818.145322)" fill="#dec3c8"/><use href="#p0" xlink:href="#p0" transform="matrix(-43.686918 31.740404 -22.33584 -30.742646 631.212818 853.412437)" fill="#d7b6b9"/><use href="#p0" xlink:href="#p0" transform="matrix(-43.686918 31.740404 -22.33584 -30.742646 582.671798 888.679552)" fill="#d9c8c3"/><use href="#p0" xlink:href="#p0" transform="matrix(-43.686918 31.740404 -22.33584 -30.742646 534.130778 923.946668)" fill="#d8b7b9"/><use href="#p0" xlink:href="#p0" transform="matrix(-43.686918 31.740404 -22.33584 -30.742646 485.589759 959.213783)" fill="#d9bac1"/><use href="#p0" xlink:href="#p0" transform="matrix(-43.686918 31.740404 -22.33584 -30.742646 920.866895 588.579441)" fill="#dccfc8"/><use href="#p0" xlink:href="#p0" transform="matrix(-43.686918 31.740404 -22.33584 -30.742646 872.325875 623.846556)" fill="#d8ccc3"/><use href="#p0" xlink:href="#p0" transform="matrix(-43.686918 31.740404 -22.33584 -30.742646 823.784855 659.113671)" fill="#ddd0ca"/><use href="#p0" xlink:href="#p0" transform="matrix(-43.686918 31.740404 -22.33584 -30.742646 775.243836 694.380786)" fill="#d9b8bb"/><use href="#p0" xlink:href="#p0" transform="matrix(-43.686918 31.740404 -22.33584 -30.742646 726.702816 729.647902)" fill="#e0d2ce"/><use href="#p0" xlink:href="#p0" transform="matrix(-43.686918 31.740404 -22.33584 -30.742646 678.161796 764.915017)" fill="#dccace"/><use href="#p0" xlink:href="#p0" transform="matrix(-43.686918 31.740404 -22.33584 -30.742646 629.620777 800.182132)" fill="#d8c9c2"/><use href="#p0" xlink:href="#p0" transform="matrix(-43.686918 31.740404 -22.33584 -30.742646 581.079757 835.449247)" fill="#dacac5"/><use href="#p0" xlink:href="#p0" transform="matrix(-43.686918 31.740404 -22.33584 -30.742646 532.538737 870.716362)" fill="#d8ccc3"/><use href="#p0" xlink:href="#p0" transform="matrix(-43.686918 31.740404 -22.33584 -30.742646 483.997718 905.983477)" fill="#d8bec2"/><use href="#p0" xlink:href="#p0" transform="matrix(-43.686918 31.740404 -22.33584 -30.742646 919.274853 535.349136)" fill="#ddc5ca"/><use href="#p0" xlink:href="#p0" transform="matrix(-43.686918 31.740404 -22.33584 -30.742646 870.733834 570.616251)" fill="#dfc6c9"/><use href="#p0" xlink:href="#p0" transform="matrix(-43.686918 31.740404 -22.33584 -30.742646 822.192814 605.883366)" fill="#dfd0cc"/><use href="#p0" xlink:href="#p0" transform="matrix(-43.686918 31.740404 -22.33584 -30.742646 773.651794 641.150481)" fill="#d9ccc4"/><use href="#p0" xlink:href="#p0" transform="matrix(-43.686918 31.740404 -22.33584 -30.742646 725.110775 676.417596)" fill="#dfc4c7"/><use href="#p0" xlink:href="#p0" transform="matrix(-43.686918 31.740404 -22.33584 -30.742646 676.569755 711.684711)" fill="#dabec3"/><use href="#p0" xlink:href="#p0" transform="matrix(-43.686918 31.740404 -22.33584 -30.742646 628.028735 746.951827)" fill="#decbcc"/><use href="#p0" xlink:href="#p0" transform="matrix(-43.686918 31.740404 -22.33584 -30.742646 579.487716 782.218942)" fill="#ded2cc"/><use href="#p0" xlink:href="#p0" transform="matrix(-43.686918 31.740404 -22.33584 -30.742646 530.946696 817.486057)" fill="#ddc8ca"/><use href="#p0" xlink:href="#p0" transform="matrix(-43.686918 31.740404 -22.33584 -30.742646 482.405676 852.753172)" fill="#e0c6cc"/><use href="#p0" xlink:href="#p0" transform="matrix(-43.686918 31.740404 -22.33584 -30.742646 433.864657 888.020287)" fill="#dbccc7"/><use href="#p0" xlink:href="#p0" transform="matrix(-43.686918 31.740404 -22.33584 -30.742646 869.141792 517.385946)" fill="#dfd5cd"/><use href="#p0" xlink:href="#p0" transform="matrix(-43.686918 31.740404 -22.33584 -30.742646 820.600773 552.653061)" fill="#e1c5cc"/><use href="#p0" xlink:href="#p0" transform="matrix(-43.686918 31.740404 -22.33584 -30.742646 772.059753 587.920176)" fill="#dac7c9"/><use href="#p0" xlink:href="#p0" transform="matrix(-43.686918 31.740404 -22.33584 -30.742646 723.518733 623.187291)" fill="#dfc4ca"/><use href="#p0" xlink:href="#p0" transform="matrix(-43.686918 31.740404 -22.33584 -30.742646 674.977714 658.454406)" fill="#daccc6"/><use href="#p0" xlink:href="#p0" transform="matrix(-43.686918 31.740404 -22.33584 -30.742646 626.436694 693.721521)" fill="#e2d5d2"/><use href="#p0" xlink:href="#p0" transform="matrix(-43.686918 31.740404 -22.33584 -30.742646 577.895674 728.988636)" fill="#d4bcc2"/><use href="#p0" xlink:href="#p0" transform="matrix(-43.686918 31.740404 -22.33584 -30.742646 529.354655 764.255752)" fill="#ded5cc"/><use href="#p0" xlink:href="#p0" transform="matrix(-43.686918 31.740404 -22.33584 -30.742646 480.813635 799.522867)" fill="#e3c8cc"/><use href="#p0" xlink:href="#p0" transform="matrix(-43.686918 31.740404 -22.33584 -30.742646 432.272615 834.789982)" fill="#e2d9d2"/><use href="#p0" xlink:href="#p0" transform="matrix(-43.686918 31.740404 -22.33584 -30.742646 867.549751 464.15564)" fill="#dcc9ce"/><use href="#p0" xlink:href="#p0" transform="matrix(-43.686918 31.740404 -22.33584 -30.742646 819.008731 499.422755)" fill="#dececb"/><use href="#p0" xlink:href="#p0" transform="matrix(-43.686918 31.740404 -22.33584 -30.742646 770.467712 534.689871)" fill="#d5bbbe"/><use href="#p0" xlink:href="#p0" transform="matrix(-43.686918 31.740404 -22.33584 -30.742646 721.926692 569.956986)" fill="#d9cac3"/><use href="#p0" xlink:href="#p0" transform="matrix(-43.686918 31.740404 -22.33584 -30.742646 673.385672 605.224101)" fill="#d9cbc3"/><use href="#p0" xlink:href="#p0" transform="matrix(-43.686918 31.740404 -22.33584 -30.742646 624.844653 640.491216)" fill="#dacdc6"/><use href="#p0" xlink:href="#p0" transform="matrix(-43.686918 31.740404 -22.33584 -30.742646 576.303633 675.758331)" fill="#d4bcc0"/><use href="#p0" xlink:href="#p0" transform="matrix(-43.686918 31.740404 -22.33584 -30.742646 527.762613 711.025446)" fill="#dcd1c9"/><use href="#p0" xlink:href="#p0" transform="matrix(-43.686918 31.740404 -22.33584 -30.742646 479.221594 746.292561)" fill="#d6bdc0"/><use href="#p0" xlink:href="#p0" transform="matrix(-43.686918 31.740404 -22.33584 -30.742646 430.680574 781.559676)" fill="#d8ccc3"/><use href="#p0" xlink:href="#p0" transform="matrix(-43.686918 31.740404 -22.33584 -30.742646 382.139554 816.826792)" fill="#dabfc5"/><use href="#p0" xlink:href="#p0" transform="matrix(-43.686918 31.740404 -22.33584 -30.742646 817.41669 446.19245)" fill="#e1d7d0"/><use href="#p0" xlink:href="#p0" transform="matrix(-43.686918 31.740404 -22.33584 -30.742646 768.87567 481.459565)" fill="#e1d7d0"/><use href="#p0" xlink:href="#p0" transform="matrix(-43.686918 31.740404 -22.33584 -30.742646 720.334651 516.72668)" fill="#e0c2c4"/><use href="#p0" xlink:href="#p0" transform="matrix(-43.686918 31.740404 -22.33584 -30.742646 671.793631 551.993795)" fill="#dab5be"/><use href="#p0" xlink:href="#p0" transform="matrix(-43.686918 31.740404 -22.33584 -30.742646 623.252611 587.260911)" fill="#dfc9cc"/><use href="#p0" xlink:href="#p0" transform="matrix(-43.686918 31.740404 -22.33584 -30.742646 574.711592 622.528026)" fill="#ddbec2"/><use href="#p0" xlink:href="#p0" transform="matrix(-43.686918 31.740404 -22.33584 -30.742646 526.170572 657.795141)" fill="#e3cacd"/><use href="#p0" xlink:href="#p0" transform="matrix(-43.686918 31.740404 -22.33584 -30.742646 477.629552 693.062256)" fill="#d8c6c2"/><use href="#p0" xlink:href="#p0" transform="matrix(-43.686918 31.740404 -22.33584 -30.742646 429.088533 728.329371)" fill="#e0d5ce"/><use href="#p0" xlink:href="#p0" transform="matrix(-43.686918 31.740404 -22.33584 -30.742646 380.547513 763.596486)" fill="#dac3c7"/><use href="#p0" xlink:href="#p0" transform="matrix(-43.686918 31.740404 -22.33584 -30.742646 815.824649 392.962145)" fill="#decacc"/><use href="#p0" xlink:href="#p0" transform="matrix(-43.686918 31.740404 -22.33584 -30.742646 767.283629 428.22926)" fill="#e0cccf"/><use href="#p0" xlink:href="#p0" transform="matrix(-43.686918 31.740404 -22.33584 -30.742646 718.74261 463.496375)" fill="#e1d8d0"/><use href="#p0" xlink:href="#p0" transform="matrix(-43.686918 31.740404 -22.33584 -30.742646 670.20159 498.76349)" fill="#ddcecb"/><use href="#p0" xlink:href="#p0" transform="matrix(-43.686918 31.740404 -22.33584 -30.742646 621.66057 534.030605)" fill="#dbccc7"/><use href="#p0" xlink:href="#p0" transform="matrix(-43.686918 31.740404 -22.33584 -30.742646 573.119551 569.29772)" fill="#d9cac4"/><use href="#p0" xlink:href="#p0" transform="matrix(-43.686918 31.740404 -22.33584 -30.742646 524.578531 604.564836)" fill="#ded0cb"/><use href="#p0" xlink:href="#p0" transform="matrix(-43.686918 31.740404 -22.33584 -30.742646 476.037511 639.831951)" fill="#dac9c5"/><use href="#p0" xlink:href="#p0" transform="matrix(-43.686918 31.740404 -22.33584 -30.742646 427.496492 675.099066)" fill="#e0c3c6"/><use href="#p0" xlink:href="#p0" transform="matrix(-43.686918 31.740404 -22.33584 -30.742646 378.955472 710.366181)" fill="#e3dad3"/><use href="#p0" xlink:href="#p0" transform="matrix(-43.686918 31.740404 -22.33584 -30.742646 330.414452 745.633296)" fill="#d9c0c7"/><use href="#p0" xlink:href="#p0" transform="matrix(-43.686918 31.740404 -22.33584 -30.742646 765.691588 374.998955)" fill="#dcbbc1"/><use href="#p0" xlink:href="#p0" transform="matrix(-43.686918 31.740404 -22.33584 -30.742646 717.150568 410.26607)" fill="#dccdc9"/><use href="#p0" xlink:href="#p0" transform="matrix(-43.686918 31.740404 -22.33584 -30.742646 668.609549 445.533185)" fill="#e1c9cd"/><use href="#p0" xlink:href="#p0" transform="matrix(-43.686918 31.740404 -22.33584 -30.742646 620.068529 480.8003)" fill="#ddbabf"/><use href="#p0" xlink:href="#p0" transform="matrix(-43.686918 31.740404 -22.33584 -30.742646 571.527509 516.067415)" fill="#e3ccd0"/><use href="#p0" xlink:href="#p0" transform="matrix(-43.686918 31.740404 -22.33584 -30.742646 522.98649 551.33453)" fill="#ddcfca"/><use href="#p0" xlink:href="#p0" transform="matrix(-43.686918 31.740404 -22.33584 -30.742646 474.44547 586.601645)" fill="#e1ced0"/><use href="#p0" xlink:href="#p0" transform="matrix(-43.686918 31.740404 -22.33584 -30.742646 425.90445 621.868761)" fill="#ddc8cd"/><use href="#p0" xlink:href="#p0" transform="matrix(-43.686918 31.740404 -22.33584 -30.742646 377.363431 657.135876)" fill="#dfcbcd"/><use href="#p0" xlink:href="#p0" transform="matrix(-43.686918 31.740404 -22.33584 -30.742646 328.822411 692.402991)" fill="#e3cbcf"/></g></g><path d="M557.26 574.3C394.4 775.91 566.26 996.08 741.44 934.25L752.46 842.96L842.68 860.69C955.62 713.2 799.34 481.71 557.26 574.3Z" fill="none" stroke="#8c8980" stroke-width="6" stroke-miterlimit="10"/><path d="M466.74 574.3C224.66 481.71 68.38 713.2 181.32 860.69L271.54 842.96L282.56 934.25C457.74 996.08 629.6 775.91 466.74 574.3Z" fill="none" stroke="#a3a098" stroke-width="34" stroke-miterlimit="10"/><path d="M466.74 574.3C224.66 481.71 68.38 713.2 181.32 860.69L271.54 842.96L282.56 934.25C457.74 996.08 629.6 775.91 466.74 574.3Z" fill="#b09c98"/><g clip-path="url(#p6)"><g data-stamp-run="3"><use href="#p0" xlink:href="#p0" transform="matrix(-43.686918 -31.740404 22.33584 -30.742646 462.065238 1066.906864)" fill="#d4bcbe"/><use href="#p0" xlink:href="#p0" transform="matrix(-43.686918 -31.740404 22.33584 -30.742646 413.524218 1031.639749)" fill="#dcccc9"/><use href="#p0" xlink:href="#p0" transform="matrix(-43.686918 -31.740404 22.33584 -30.742646 364.983199 996.372634)" fill="#d9c9c4"/><use href="#p0" xlink:href="#p0" transform="matrix(-43.686918 -31.740404 22.33584 -30.742646 316.442179 961.105519)" fill="#d1babe"/><use href="#p0" xlink:href="#p0" transform="matrix(-43.686918 -31.740404 22.33584 -30.742646 267.901159 925.838403)" fill="#e1d3cf"/><use href="#p0" xlink:href="#p0" transform="matrix(-43.686918 -31.740404 22.33584 -30.742646 219.36014 890.571288)" fill="#d3bdc2"/><use href="#p0" xlink:href="#p0" transform="matrix(-43.686918 -31.740404 22.33584 -30.742646 170.81912 855.304173)" fill="#dacdc6"/><use href="#p0" xlink:href="#p0" transform="matrix(-43.686918 -31.740404 22.33584 -30.742646 122.2781 820.037058)" fill="#d7c1c5"/><use href="#p0" xlink:href="#p0" transform="matrix(-43.686918 -31.740404 22.33584 -30.742646 73.737081 784.769943)" fill="#d3bdbf"/><use href="#p0" xlink:href="#p0" transform="matrix(-43.686918 -31.740404 22.33584 -30.742646 25.196061 749.502828)" fill="#ded1cb"/><use href="#p0" xlink:href="#p0" transform="matrix(-43.686918 -31.740404 22.33584 -30.742646 512.198299 1048.943674)" fill="#d8bac2"/><use href="#p0" xlink:href="#p0" transform="matrix(-43.686918 -31.740404 22.33584 -30.742646 463.657279 1013.676559)" fill="#dccdc8"/><use href="#p0" xlink:href="#p0" transform="matrix(-43.686918 -31.740404 22.33584 -30.742646 415.11626 978.409444)" fill="#dbccc7"/><use href="#p0" xlink:href="#p0" transform="matrix(-43.686918 -31.740404 22.33584 -30.742646 366.57524 943.142328)" fill="#dccdc8"/><use href="#p0" xlink:href="#p0" transform="matrix(-43.686918 -31.740404 22.33584 -30.742646 318.03422 907.875213)" fill="#dacec5"/><use href="#p0" xlink:href="#p0" transform="matrix(-43.686918 -31.740404 22.33584 -30.742646 269.493201 872.608098)" fill="#d9c9cb"/><use href="#p0" xlink:href="#p0" transform="matrix(-43.686918 -31.740404 22.33584 -30.742646 220.952181 837.340983)" fill="#d5bcc0"/><use href="#p0" xlink:href="#p0" transform="matrix(-43.686918 -31.740404 22.33584 -30.742646 172.411161 802.073868)" fill="#d1b9bc"/><use href="#p0" xlink:href="#p0" transform="matrix(-43.686918 -31.740404 22.33584 -30.742646 123.870142 766.806753)" fill="#d8c9c2"/><use href="#p0" xlink:href="#p0" transform="matrix(-43.686918 -31.740404 22.33584 -30.742646 75.329122 731.539638)" fill="#d9bcc2"/><use href="#p0" xlink:href="#p0" transform="matrix(-43.686918 -31.740404 22.33584 -30.742646 26.788102 696.272522)" fill="#e1d4cf"/><use href="#p0" xlink:href="#p0" transform="matrix(-43.686918 -31.740404 22.33584 -30.742646 513.79034 995.713369)" fill="#d5b9bd"/><use href="#p0" xlink:href="#p0" transform="matrix(-43.686918 -31.740404 22.33584 -30.742646 465.249321 960.446253)" fill="#daccc5"/><use href="#p0" xlink:href="#p0" transform="matrix(-43.686918 -31.740404 22.33584 -30.742646 416.708301 925.179138)" fill="#dfd4ce"/><use href="#p0" xlink:href="#p0" transform="matrix(-43.686918 -31.740404 22.33584 -30.742646 368.167281 889.912023)" fill="#d6c2c7"/><use href="#p0" xlink:href="#p0" transform="matrix(-43.686918 -31.740404 22.33584 -30.742646 319.626262 854.644908)" fill="#d9bfc1"/><use href="#p0" xlink:href="#p0" transform="matrix(-43.686918 -31.740404 22.33584 -30.742646 271.085242 819.377793)" fill="#ddcecb"/><use href="#p0" xlink:href="#p0" transform="matrix(-43.686918 -31.740404 22.33584 -30.742646 222.544222 784.110678)" fill="#dcc8cd"/><use href="#p0" xlink:href="#p0" transform="matrix(-43.686918 -31.740404 22.33584 -30.742646 174.003203 748.843563)" fill="#e0d3ce"/><use href="#p0" xlink:href="#p0" transform="matrix(-43.686918 -31.740404 22.33584 -30.742646 125.462183 713.576447)" fill="#dbcec7"/><use href="#p0" xlink:href="#p0" transform="matrix(-43.686918 -31.740404 22.33584 -30.742646 76.921163 678.309332)" fill="#d0b9bb"/><use href="#p0" xlink:href="#p0" transform="matrix(-43.686918 -31.740404 22.33584 -30.742646 563.923401 977.750178)" fill="#d6b5ba"/><use href="#p0" xlink:href="#p0" transform="matrix(-43.686918 -31.740404 22.33584 -30.742646 515.382381 942.483063)" fill="#d9cbc4"/><use href="#p0" xlink:href="#p0" transform="matrix(-43.686918 -31.740404 22.33584 -30.742646 466.841362 907.215948)" fill="#dfd2cc"/><use href="#p0" xlink:href="#p0" transform="matrix(-43.686918 -31.740404 22.33584 -30.742646 418.300342 871.948833)" fill="#dac4c7"/><use href="#p0" xlink:href="#p0" transform="matrix(-43.686918 -31.740404 22.33584 -30.742646 369.759322 836.681718)" fill="#dcd1c9"/><use href="#p0" xlink:href="#p0" transform="matrix(-43.686918 -31.740404 22.33584 -30.742646 321.218303 801.414603)" fill="#d5c0c2"/><use href="#p0" xlink:href="#p0" transform="matrix(-43.686918 -31.740404 22.33584 -30.742646 272.677283 766.147488)" fill="#dbc0c6"/><use href="#p0" xlink:href="#p0" transform="matrix(-43.686918 -31.740404 22.33584 -30.742646 224.136263 730.880372)" fill="#d3b6b9"/><use href="#p0" xlink:href="#p0" transform="matrix(-43.686918 -31.740404 22.33584 -30.742646 175.595244 695.613257)" fill="#d7c7c1"/><use href="#p0" xlink:href="#p0" transform="matrix(-43.686918 -31.740404 22.33584 -30.742646 127.054224 660.346142)" fill="#e0d6cf"/><use href="#p0" xlink:href="#p0" transform="matrix(-43.686918 -31.740404 22.33584 -30.742646 78.513204 625.079027)" fill="#e3dad3"/><use href="#p0" xlink:href="#p0" transform="matrix(-43.686918 -31.740404 22.33584 -30.742646 565.515442 924.519873)" fill="#e0d3cf"/><use href="#p0" xlink:href="#p0" transform="matrix(-43.686918 -31.740404 22.33584 -30.742646 516.974423 889.252758)" fill="#ddc8ca"/><use href="#p0" xlink:href="#p0" transform="matrix(-43.686918 -31.740404 22.33584 -30.742646 468.433403 853.985643)" fill="#d7c0c3"/><use href="#p0" xlink:href="#p0" transform="matrix(-43.686918 -31.740404 22.33584 -30.742646 419.892383 818.718528)" fill="#dcccd0"/><use href="#p0" xlink:href="#p0" transform="matrix(-43.686918 -31.740404 22.33584 -30.742646 371.351364 783.451412)" fill="#dbcdc6"/><use href="#p0" xlink:href="#p0" transform="matrix(-43.686918 -31.740404 22.33584 -30.742646 322.810344 748.184297)" fill="#e0c5c8"/><use href="#p0" xlink:href="#p0" transform="matrix(-43.686918 -31.740404 22.33584 -30.742646 274.269324 712.917182)" fill="#dec3c5"/><use href="#p0" xlink:href="#p0" transform="matrix(-43.686918 -31.740404 22.33584 -30.742646 225.728305 677.650067)" fill="#dbccc7"/><use href="#p0" xlink:href="#p0" transform="matrix(-43.686918 -31.740404 22.33584 -30.742646 177.187285 642.382952)" fill="#ded3cc"/><use href="#p0" xlink:href="#p0" transform="matrix(-43.686918 -31.740404 22.33584 -30.742646 128.646265 607.115837)" fill="#d9cbc4"/><use href="#p0" xlink:href="#p0" transform="matrix(-43.686918 -31.740404 22.33584 -30.742646 615.648503 906.556683)" fill="#d7cbc1"/><use href="#p0" xlink:href="#p0" transform="matrix(-43.686918 -31.740404 22.33584 -30.742646 567.107484 871.289568)" fill="#d8bcc3"/><use href="#p0" xlink:href="#p0" transform="matrix(-43.686918 -31.740404 22.33584 -30.742646 518.566464 836.022453)" fill="#ddbec5"/><use href="#p0" xlink:href="#p0" transform="matrix(-43.686918 -31.740404 22.33584 -30.742646 470.025444 800.755337)" fill="#e0c7cb"/><use href="#p0" xlink:href="#p0" transform="matrix(-43.686918 -31.740404 22.33584 -30.742646 421.484425 765.488222)" fill="#dfd4ce"/><use href="#p0" xlink:href="#p0" transform="matrix(-43.686918 -31.740404 22.33584 -30.742646 372.943405 730.221107)" fill="#d9c9c3"/><use href="#p0" xlink:href="#p0" transform="matrix(-43.686918 -31.740404 22.33584 -30.742646 324.402385 694.953992)" fill="#dbcdc6"/><use href="#p0" xlink:href="#p0" transform="matrix(-43.686918 -31.740404 22.33584 -30.742646 275.861366 659.686877)" fill="#dfc2c5"/><use href="#p0" xlink:href="#p0" transform="matrix(-43.686918 -31.740404 22.33584 -30.742646 227.320346 624.419762)" fill="#d7c7c1"/><use href="#p0" xlink:href="#p0" transform="matrix(-43.686918 -31.740404 22.33584 -30.742646 178.779326 589.152647)" fill="#d9bec2"/><use href="#p0" xlink:href="#p0" transform="matrix(-43.686918 -31.740404 22.33584 -30.742646 130.238307 553.885531)" fill="#dfd2cd"/><use href="#p0" xlink:href="#p0" transform="matrix(-43.686918 -31.740404 22.33584 -30.742646 617.240545 853.326378)" fill="#decbcf"/><use href="#p0" xlink:href="#p0" transform="matrix(-43.686918 -31.740404 22.33584 -30.742646 568.699525 818.059262)" fill="#dbd0c6"/><use href="#p0" xlink:href="#p0" transform="matrix(-43.686918 -31.740404 22.33584 -30.742646 520.158505 782.792147)" fill="#dbcfc6"/><use href="#p0" xlink:href="#p0" transform="matrix(-43.686918 -31.740404 22.33584 -30.742646 471.617486 747.525032)" fill="#dfc9cb"/><use href="#p0" xlink:href="#p0" transform="matrix(-43.686918 -31.740404 22.33584 -30.742646 423.076466 712.257917)" fill="#dbc5c8"/><use href="#p0" xlink:href="#p0" transform="matrix(-43.686918 -31.740404 22.33584 -30.742646 374.535446 676.990802)" fill="#d9c9c4"/><use href="#p0" xlink:href="#p0" transform="matrix(-43.686918 -31.740404 22.33584 -30.742646 325.994427 641.723687)" fill="#d8cbc2"/><use href="#p0" xlink:href="#p0" transform="matrix(-43.686918 -31.740404 22.33584 -30.742646 277.453407 606.456572)" fill="#dec5c7"/><use href="#p0" xlink:href="#p0" transform="matrix(-43.686918 -31.740404 22.33584 -30.742646 228.912387 571.189456)" fill="#dfc5c9"/><use href="#p0" xlink:href="#p0" transform="matrix(-43.686918 -31.740404 22.33584 -30.742646 180.371368 535.922341)" fill="#d6bec1"/><use href="#p0" xlink:href="#p0" transform="matrix(-43.686918 -31.740404 22.33584 -30.742646 667.373606 835.363187)" fill="#dbc1c7"/><use href="#p0" xlink:href="#p0" transform="matrix(-43.686918 -31.740404 22.33584 -30.742646 618.832586 800.096072)" fill="#e2d8d2"/><use href="#p0" xlink:href="#p0" transform="matrix(-43.686918 -31.740404 22.33584 -30.742646 570.291566 764.828957)" fill="#ddcfca"/><use href="#p0" xlink:href="#p0" transform="matrix(-43.686918 -31.740404 22.33584 -30.742646 521.750547 729.561842)" fill="#e2d5d1"/><use href="#p0" xlink:href="#p0" transform="matrix(-43.686918 -31.740404 22.33584 -30.742646 473.209527 694.294727)" fill="#e1c4ca"/><use href="#p0" xlink:href="#p0" transform="matrix(-43.686918 -31.740404 22.33584 -30.742646 424.668507 659.027612)" fill="#e1d4d0"/><use href="#p0" xlink:href="#p0" transform="matrix(-43.686918 -31.740404 22.33584 -30.742646 376.127488 623.760497)" fill="#d9cdc4"/><use href="#p0" xlink:href="#p0" transform="matrix(-43.686918 -31.740404 22.33584 -30.742646 327.586468 588.493381)" fill="#dabcc2"/><use href="#p0" xlink:href="#p0" transform="matrix(-43.686918 -31.740404 22.33584 -30.742646 279.045448 553.226266)" fill="#dcc7cb"/><use href="#p0" xlink:href="#p0" transform="matrix(-43.686918 -31.740404 22.33584 -30.742646 230.504429 517.959151)" fill="#dbccc7"/><use href="#p0" xlink:href="#p0" transform="matrix(-43.686918 -31.740404 22.33584 -30.742646 181.963409 482.692036)" fill="#ddc0c2"/><use href="#p0" xlink:href="#p0" transform="matrix(-43.686918 -31.740404 22.33584 -30.742646 668.965647 782.132882)" fill="#e2d6d2"/><use href="#p0" xlink:href="#p0" transform="matrix(-43.686918 -31.740404 22.33584 -30.742646 620.424627 746.865767)" fill="#dabdc3"/><use href="#p0" xlink:href="#p0" transform="matrix(-43.686918 -31.740404 22.33584 -30.742646 571.883607 711.598652)" fill="#dcc5cb"/><use href="#p0" xlink:href="#p0" transform="matrix(-43.686918 -31.740404 22.33584 -30.742646 523.342588 676.331537)" fill="#ddd0ca"/><use href="#p0" xlink:href="#p0" transform="matrix(-43.686918 -31.740404 22.33584 -30.742646 474.801568 641.064421)" fill="#e0d7cf"/><use href="#p0" xlink:href="#p0" transform="matrix(-43.686918 -31.740404 22.33584 -30.742646 426.260548 605.797306)" fill="#debdbf"/><use href="#p0" xlink:href="#p0" transform="matrix(-43.686918 -31.740404 22.33584 -30.742646 377.719529 570.530191)" fill="#dfd5cd"/><use href="#p0" xlink:href="#p0" transform="matrix(-43.686918 -31.740404 22.33584 -30.742646 329.178509 535.263076)" fill="#d8c6c2"/><use href="#p0" xlink:href="#p0" transform="matrix(-43.686918 -31.740404 22.33584 -30.742646 280.637489 499.995961)" fill="#ddbfc4"/><use href="#p0" xlink:href="#p0" transform="matrix(-43.686918 -31.740404 22.33584 -30.742646 232.09647 464.728846)" fill="#ded0cb"/><use href="#p0" xlink:href="#p0" transform="matrix(-43.686918 -31.740404 22.33584 -30.742646 719.098708 764.169692)" fill="#dcb8bf"/><use href="#p0" xlink:href="#p0" transform="matrix(-43.686918 -31.740404 22.33584 -30.742646 670.557688 728.902577)" fill="#e4c9cb"/><use href="#p0" xlink:href="#p0" transform="matrix(-43.686918 -31.740404 22.33584 -30.742646 622.016668 693.635462)" fill="#e3d9d3"/><use href="#p0" xlink:href="#p0" transform="matrix(-43.686918 -31.740404 22.33584 -30.742646 573.475649 658.368346)" fill="#ddbdc2"/><use href="#p0" xlink:href="#p0" transform="matrix(-43.686918 -31.740404 22.33584 -30.742646 524.934629 623.101231)" fill="#dfd5cc"/><use href="#p0" xlink:href="#p0" transform="matrix(-43.686918 -31.740404 22.33584 -30.742646 476.393609 587.834116)" fill="#dcbcbf"/><use href="#p0" xlink:href="#p0" transform="matrix(-43.686918 -31.740404 22.33584 -30.742646 427.85259 552.567001)" fill="#dbcdc7"/><use href="#p0" xlink:href="#p0" transform="matrix(-43.686918 -31.740404 22.33584 -30.742646 379.31157 517.299886)" fill="#ddd0c9"/><use href="#p0" xlink:href="#p0" transform="matrix(-43.686918 -31.740404 22.33584 -30.742646 330.77055 482.032771)" fill="#e3c8cb"/><use href="#p0" xlink:href="#p0" transform="matrix(-43.686918 -31.740404 22.33584 -30.742646 282.229531 446.765656)" fill="#d8c6c2"/><use href="#p0" xlink:href="#p0" transform="matrix(-43.686918 -31.740404 22.33584 -30.742646 233.688511 411.49854)" fill="#dbb8ba"/><use href="#p0" xlink:href="#p0" transform="matrix(-43.686918 -31.740404 22.33584 -30.742646 720.690749 710.939387)" fill="#e2cbce"/><use href="#p0" xlink:href="#p0" transform="matrix(-43.686918 -31.740404 22.33584 -30.742646 672.149729 675.672271)" fill="#d7c7c1"/><use href="#p0" xlink:href="#p0" transform="matrix(-43.686918 -31.740404 22.33584 -30.742646 623.60871 640.405156)" fill="#dbd0c6"/><use href="#p0" xlink:href="#p0" transform="matrix(-43.686918 -31.740404 22.33584 -30.742646 575.06769 605.138041)" fill="#dfbdc5"/><use href="#p0" xlink:href="#p0" transform="matrix(-43.686918 -31.740404 22.33584 -30.742646 526.52667 569.870926)" fill="#e4c9cc"/><use href="#p0" xlink:href="#p0" transform="matrix(-43.686918 -31.740404 22.33584 -30.742646 477.985651 534.603811)" fill="#dccec9"/><use href="#p0" xlink:href="#p0" transform="matrix(-43.686918 -31.740404 22.33584 -30.742646 429.444631 499.336696)" fill="#dfd4cd"/><use href="#p0" xlink:href="#p0" transform="matrix(-43.686918 -31.740404 22.33584 -30.742646 380.903611 464.069581)" fill="#ded3cb"/><use href="#p0" xlink:href="#p0" transform="matrix(-43.686918 -31.740404 22.33584 -30.742646 332.362592 428.802465)" fill="#d9cdc4"/><use href="#p0" xlink:href="#p0" transform="matrix(-43.686918 -31.740404 22.33584 -30.742646 283.821572 393.53535)" fill="#e1d6d0"/></g></g><path d="M466.74 574.3C224.66 481.71 68.38 713.2 181.32 860.69L271.54 842.96L282.56 934.25C457.74 996.08 629.6 775.91 466.74 574.3Z" fill="none" stroke="#8c8980" stroke-width="6" stroke-miterlimit="10"/><path d="M438.76 488.2C452.02 229.37 183.56 152.26 78.19 305.26L122.93 385.58L39.52 424.27C34.84 609.99 297.35 705.4 438.76 488.2Z" fill="none" stroke="#a3a098" stroke-width="34" stroke-miterlimit="10"/><path d="M438.76 488.2C452.02 229.37 183.56 152.26 78.19 305.26L122.93 385.58L39.52 424.27C34.84 609.99 297.35 705.4 438.76 488.2Z" fill="#b09c98"/><g clip-path="url(#p7)"><g data-stamp-run="4"><use href="#p0" xlink:href="#p0" transform="matrix(16.686918 -51.357052 36.140148 11.742646 -31.178479 635.98487)" fill="#d9cbc3"/><use href="#p0" xlink:href="#p0" transform="matrix(16.686918 -51.357052 36.140148 11.742646 -12.637459 578.92148)" fill="#dfd6cd"/><use href="#p0" xlink:href="#p0" transform="matrix(16.686918 -51.357052 36.140148 11.742646 5.90356 521.858089)" fill="#dbcec7"/><use href="#p0" xlink:href="#p0" transform="matrix(16.686918 -51.357052 36.140148 11.742646 24.44458 464.794698)" fill="#e1d5d0"/><use href="#p0" xlink:href="#p0" transform="matrix(16.686918 -51.357052 36.140148 11.742646 42.9856 407.731307)" fill="#d3b2b4"/><use href="#p0" xlink:href="#p0" transform="matrix(16.686918 -51.357052 36.140148 11.742646 61.526619 350.667916)" fill="#d8cbc2"/><use href="#p0" xlink:href="#p0" transform="matrix(16.686918 -51.357052 36.140148 11.742646 80.067639 293.604525)" fill="#e0d5cf"/><use href="#p0" xlink:href="#p0" transform="matrix(16.686918 -51.357052 36.140148 11.742646 98.608659 236.541134)" fill="#dac9c5"/><use href="#p0" xlink:href="#p0" transform="matrix(16.686918 -51.357052 36.140148 11.742646 117.149678 179.477743)" fill="#e0d4ce"/><use href="#p0" xlink:href="#p0" transform="matrix(16.686918 -51.357052 36.140148 11.742646 135.690698 122.414352)" fill="#d8c3c6"/><use href="#p0" xlink:href="#p0" transform="matrix(16.686918 -51.357052 36.140148 11.742646 1.397498 678.113314)" fill="#e1d6d0"/><use href="#p0" xlink:href="#p0" transform="matrix(16.686918 -51.357052 36.140148 11.742646 19.938517 621.049923)" fill="#decfcb"/><use href="#p0" xlink:href="#p0" transform="matrix(16.686918 -51.357052 36.140148 11.742646 38.479537 563.986532)" fill="#d0b8bd"/><use href="#p0" xlink:href="#p0" transform="matrix(16.686918 -51.357052 36.140148 11.742646 57.020557 506.923141)" fill="#d2bdc1"/><use href="#p0" xlink:href="#p0" transform="matrix(16.686918 -51.357052 36.140148 11.742646 75.561576 449.85975)" fill="#d3bec0"/><use href="#p0" xlink:href="#p0" transform="matrix(16.686918 -51.357052 36.140148 11.742646 94.102596 392.796359)" fill="#d7c5c8"/><use href="#p0" xlink:href="#p0" transform="matrix(16.686918 -51.357052 36.140148 11.742646 112.643616 335.732968)" fill="#dac4c5"/><use href="#p0" xlink:href="#p0" transform="matrix(16.686918 -51.357052 36.140148 11.742646 131.184635 278.669577)" fill="#d4bbbf"/><use href="#p0" xlink:href="#p0" transform="matrix(16.686918 -51.357052 36.140148 11.742646 149.725655 221.606186)" fill="#dbbec3"/><use href="#p0" xlink:href="#p0" transform="matrix(16.686918 -51.357052 36.140148 11.742646 168.266675 164.542795)" fill="#d6c1c6"/><use href="#p0" xlink:href="#p0" transform="matrix(16.686918 -51.357052 36.140148 11.742646 186.807694 107.479404)" fill="#e2d5d1"/><use href="#p0" xlink:href="#p0" transform="matrix(16.686918 -51.357052 36.140148 11.742646 52.514494 663.178366)" fill="#d8bec0"/><use href="#p0" xlink:href="#p0" transform="matrix(16.686918 -51.357052 36.140148 11.742646 71.055514 606.114975)" fill="#dbc1c8"/><use href="#p0" xlink:href="#p0" transform="matrix(16.686918 -51.357052 36.140148 11.742646 89.596534 549.051584)" fill="#dfd4cd"/><use href="#p0" xlink:href="#p0" transform="matrix(16.686918 -51.357052 36.140148 11.742646 108.137553 491.988193)" fill="#ddceca"/><use href="#p0" xlink:href="#p0" transform="matrix(16.686918 -51.357052 36.140148 11.742646 126.678573 434.924802)" fill="#d4b8bb"/><use href="#p0" xlink:href="#p0" transform="matrix(16.686918 -51.357052 36.140148 11.742646 145.219593 377.861411)" fill="#d9b9bc"/><use href="#p0" xlink:href="#p0" transform="matrix(16.686918 -51.357052 36.140148 11.742646 163.760612 320.79802)" fill="#d7b9c0"/><use href="#p0" xlink:href="#p0" transform="matrix(16.686918 -51.357052 36.140148 11.742646 182.301632 263.734629)" fill="#e1d4d1"/><use href="#p0" xlink:href="#p0" transform="matrix(16.686918 -51.357052 36.140148 11.742646 200.842652 206.671238)" fill="#d9c9c4"/><use href="#p0" xlink:href="#p0" transform="matrix(16.686918 -51.357052 36.140148 11.742646 219.383671 149.607847)" fill="#ddd0ca"/><use href="#p0" xlink:href="#p0" transform="matrix(16.686918 -51.357052 36.140148 11.742646 85.090471 705.306809)" fill="#ded3cb"/><use href="#p0" xlink:href="#p0" transform="matrix(16.686918 -51.357052 36.140148 11.742646 103.631491 648.243418)" fill="#d9c6c8"/><use href="#p0" xlink:href="#p0" transform="matrix(16.686918 -51.357052 36.140148 11.742646 122.172511 591.180027)" fill="#e3d8d3"/><use href="#p0" xlink:href="#p0" transform="matrix(16.686918 -51.357052 36.140148 11.742646 140.71353 534.116636)" fill="#d6c0c6"/><use href="#p0" xlink:href="#p0" transform="matrix(16.686918 -51.357052 36.140148 11.742646 159.25455 477.053245)" fill="#ddd1c9"/><use href="#p0" xlink:href="#p0" transform="matrix(16.686918 -51.357052 36.140148 11.742646 177.79557 419.989854)" fill="#dcc7cc"/><use href="#p0" xlink:href="#p0" transform="matrix(16.686918 -51.357052 36.140148 11.742646 196.336589 362.926463)" fill="#e2d9d2"/><use href="#p0" xlink:href="#p0" transform="matrix(16.686918 -51.357052 36.140148 11.742646 214.877609 305.863072)" fill="#dcccc9"/><use href="#p0" xlink:href="#p0" transform="matrix(16.686918 -51.357052 36.140148 11.742646 233.418629 248.799681)" fill="#dececb"/><use href="#p0" xlink:href="#p0" transform="matrix(16.686918 -51.357052 36.140148 11.742646 251.959648 191.73629)" fill="#ddd0c9"/><use href="#p0" xlink:href="#p0" transform="matrix(16.686918 -51.357052 36.140148 11.742646 270.500668 134.672899)" fill="#dcc8cc"/><use href="#p0" xlink:href="#p0" transform="matrix(16.686918 -51.357052 36.140148 11.742646 136.207468 690.371861)" fill="#d8c8c2"/><use href="#p0" xlink:href="#p0" transform="matrix(16.686918 -51.357052 36.140148 11.742646 154.748487 633.308471)" fill="#d5bbbf"/><use href="#p0" xlink:href="#p0" transform="matrix(16.686918 -51.357052 36.140148 11.742646 173.289507 576.24508)" fill="#daccc5"/><use href="#p0" xlink:href="#p0" transform="matrix(16.686918 -51.357052 36.140148 11.742646 191.830527 519.181689)" fill="#d8c1c4"/><use href="#p0" xlink:href="#p0" transform="matrix(16.686918 -51.357052 36.140148 11.742646 210.371546 462.118298)" fill="#d6b8bf"/><use href="#p0" xlink:href="#p0" transform="matrix(16.686918 -51.357052 36.140148 11.742646 228.912566 405.054907)" fill="#dcc1c7"/><use href="#p0" xlink:href="#p0" transform="matrix(16.686918 -51.357052 36.140148 11.742646 247.453586 347.991516)" fill="#d5bac1"/><use href="#p0" xlink:href="#p0" transform="matrix(16.686918 -51.357052 36.140148 11.742646 265.994605 290.928125)" fill="#dbd0c6"/><use href="#p0" xlink:href="#p0" transform="matrix(16.686918 -51.357052 36.140148 11.742646 284.535625 233.864734)" fill="#e0d4ce"/><use href="#p0" xlink:href="#p0" transform="matrix(16.686918 -51.357052 36.140148 11.742646 303.076645 176.801343)" fill="#dcd1c9"/><use href="#p0" xlink:href="#p0" transform="matrix(16.686918 -51.357052 36.140148 11.742646 168.783445 732.500305)" fill="#e0c9cc"/><use href="#p0" xlink:href="#p0" transform="matrix(16.686918 -51.357052 36.140148 11.742646 187.324464 675.436914)" fill="#dcc4c8"/><use href="#p0" xlink:href="#p0" transform="matrix(16.686918 -51.357052 36.140148 11.742646 205.865484 618.373523)" fill="#dacbc5"/><use href="#p0" xlink:href="#p0" transform="matrix(16.686918 -51.357052 36.140148 11.742646 224.406504 561.310132)" fill="#d7bcbe"/><use href="#p0" xlink:href="#p0" transform="matrix(16.686918 -51.357052 36.140148 11.742646 242.947523 504.246741)" fill="#dec3c8"/><use href="#p0" xlink:href="#p0" transform="matrix(16.686918 -51.357052 36.140148 11.742646 261.488543 447.18335)" fill="#d9cac3"/><use href="#p0" xlink:href="#p0" transform="matrix(16.686918 -51.357052 36.140148 11.742646 280.029563 390.119959)" fill="#d6b7bc"/><use href="#p0" xlink:href="#p0" transform="matrix(16.686918 -51.357052 36.140148 11.742646 298.570582 333.056568)" fill="#ddbec4"/><use href="#p0" xlink:href="#p0" transform="matrix(16.686918 -51.357052 36.140148 11.742646 317.111602 275.993177)" fill="#dfcacd"/><use href="#p0" xlink:href="#p0" transform="matrix(16.686918 -51.357052 36.140148 11.742646 335.652622 218.929786)" fill="#d3bbbe"/><use href="#p0" xlink:href="#p0" transform="matrix(16.686918 -51.357052 36.140148 11.742646 354.193641 161.866395)" fill="#d8c9c1"/><use href="#p0" xlink:href="#p0" transform="matrix(16.686918 -51.357052 36.140148 11.742646 219.900441 717.565357)" fill="#e3d8d3"/><use href="#p0" xlink:href="#p0" transform="matrix(16.686918 -51.357052 36.140148 11.742646 238.441461 660.501966)" fill="#d9c0c2"/><use href="#p0" xlink:href="#p0" transform="matrix(16.686918 -51.357052 36.140148 11.742646 256.982481 603.438575)" fill="#e0c5c9"/><use href="#p0" xlink:href="#p0" transform="matrix(16.686918 -51.357052 36.140148 11.742646 275.5235 546.375184)" fill="#dabac2"/><use href="#p0" xlink:href="#p0" transform="matrix(16.686918 -51.357052 36.140148 11.742646 294.06452 489.311793)" fill="#e3dad3"/><use href="#p0" xlink:href="#p0" transform="matrix(16.686918 -51.357052 36.140148 11.742646 312.60554 432.248402)" fill="#dfc4c8"/><use href="#p0" xlink:href="#p0" transform="matrix(16.686918 -51.357052 36.140148 11.742646 331.146559 375.185011)" fill="#dbcec7"/><use href="#p0" xlink:href="#p0" transform="matrix(16.686918 -51.357052 36.140148 11.742646 349.687579 318.12162)" fill="#dec4ca"/><use href="#p0" xlink:href="#p0" transform="matrix(16.686918 -51.357052 36.140148 11.742646 368.228599 261.058229)" fill="#dec9cc"/><use href="#p0" xlink:href="#p0" transform="matrix(16.686918 -51.357052 36.140148 11.742646 386.769618 203.994838)" fill="#d9cac4"/><use href="#p0" xlink:href="#p0" transform="matrix(16.686918 -51.357052 36.140148 11.742646 252.476418 759.6938)" fill="#ddd2c9"/><use href="#p0" xlink:href="#p0" transform="matrix(16.686918 -51.357052 36.140148 11.742646 271.017438 702.630409)" fill="#dcbac0"/><use href="#p0" xlink:href="#p0" transform="matrix(16.686918 -51.357052 36.140148 11.742646 289.558457 645.567018)" fill="#d7cbc1"/><use href="#p0" xlink:href="#p0" transform="matrix(16.686918 -51.357052 36.140148 11.742646 308.099477 588.503627)" fill="#debfc7"/><use href="#p0" xlink:href="#p0" transform="matrix(16.686918 -51.357052 36.140148 11.742646 326.640497 531.440236)" fill="#e3d7d3"/><use href="#p0" xlink:href="#p0" transform="matrix(16.686918 -51.357052 36.140148 11.742646 345.181516 474.376845)" fill="#e0d7ce"/><use href="#p0" xlink:href="#p0" transform="matrix(16.686918 -51.357052 36.140148 11.742646 363.722536 417.313454)" fill="#e3c9d0"/><use href="#p0" xlink:href="#p0" transform="matrix(16.686918 -51.357052 36.140148 11.742646 382.263556 360.250063)" fill="#dfd6cd"/><use href="#p0" xlink:href="#p0" transform="matrix(16.686918 -51.357052 36.140148 11.742646 400.804575 303.186672)" fill="#e0c9cd"/><use href="#p0" xlink:href="#p0" transform="matrix(16.686918 -51.357052 36.140148 11.742646 419.345595 246.123281)" fill="#dbb8bd"/><use href="#p0" xlink:href="#p0" transform="matrix(16.686918 -51.357052 36.140148 11.742646 437.886615 189.05989)" fill="#ddc1c6"/><use href="#p0" xlink:href="#p0" transform="matrix(16.686918 -51.357052 36.140148 11.742646 303.593415 744.758852)" fill="#d9babd"/><use href="#p0" xlink:href="#p0" transform="matrix(16.686918 -51.357052 36.140148 11.742646 322.134434 687.695462)" fill="#d8bac2"/><use href="#p0" xlink:href="#p0" transform="matrix(16.686918 -51.357052 36.140148 11.742646 340.675454 630.632071)" fill="#d7c5c1"/><use href="#p0" xlink:href="#p0" transform="matrix(16.686918 -51.357052 36.140148 11.742646 359.216474 573.56868)" fill="#d7bdc3"/><use href="#p0" xlink:href="#p0" transform="matrix(16.686918 -51.357052 36.140148 11.742646 377.757493 516.505289)" fill="#e0d7ce"/><use href="#p0" xlink:href="#p0" transform="matrix(16.686918 -51.357052 36.140148 11.742646 396.298513 459.441898)" fill="#dabbc3"/><use href="#p0" xlink:href="#p0" transform="matrix(16.686918 -51.357052 36.140148 11.742646 414.839533 402.378507)" fill="#dfd2cd"/><use href="#p0" xlink:href="#p0" transform="matrix(16.686918 -51.357052 36.140148 11.742646 433.380552 345.315116)" fill="#ddcdc9"/><use href="#p0" xlink:href="#p0" transform="matrix(16.686918 -51.357052 36.140148 11.742646 451.921572 288.251725)" fill="#e2dad2"/><use href="#p0" xlink:href="#p0" transform="matrix(16.686918 -51.357052 36.140148 11.742646 470.462592 231.188334)" fill="#dbb9bf"/><use href="#p0" xlink:href="#p0" transform="matrix(16.686918 -51.357052 36.140148 11.742646 336.169392 786.887296)" fill="#dbc5c8"/><use href="#p0" xlink:href="#p0" transform="matrix(16.686918 -51.357052 36.140148 11.742646 354.710411 729.823905)" fill="#d9bec0"/><use href="#p0" xlink:href="#p0" transform="matrix(16.686918 -51.357052 36.140148 11.742646 373.251431 672.760514)" fill="#e0d2cf"/><use href="#p0" xlink:href="#p0" transform="matrix(16.686918 -51.357052 36.140148 11.742646 391.792451 615.697123)" fill="#decfcb"/><use href="#p0" xlink:href="#p0" transform="matrix(16.686918 -51.357052 36.140148 11.742646 410.33347 558.633732)" fill="#daccc6"/><use href="#p0" xlink:href="#p0" transform="matrix(16.686918 -51.357052 36.140148 11.742646 428.87449 501.570341)" fill="#e4c9cb"/><use href="#p0" xlink:href="#p0" transform="matrix(16.686918 -51.357052 36.140148 11.742646 447.41551 444.50695)" fill="#dcc1c7"/><use href="#p0" xlink:href="#p0" transform="matrix(16.686918 -51.357052 36.140148 11.742646 465.956529 387.443559)" fill="#dccec8"/><use href="#p0" xlink:href="#p0" transform="matrix(16.686918 -51.357052 36.140148 11.742646 484.497549 330.380168)" fill="#dbbec5"/><use href="#p0" xlink:href="#p0" transform="matrix(16.686918 -51.357052 36.140148 11.742646 503.038569 273.316777)" fill="#d9ccc4"/><use href="#p0" xlink:href="#p0" transform="matrix(16.686918 -51.357052 36.140148 11.742646 521.579588 216.253386)" fill="#e0d3ce"/><use href="#p0" xlink:href="#p0" transform="matrix(16.686918 -51.357052 36.140148 11.742646 387.286388 771.952348)" fill="#decfcb"/><use href="#p0" xlink:href="#p0" transform="matrix(16.686918 -51.357052 36.140148 11.742646 405.827408 714.888957)" fill="#dfd5cd"/><use href="#p0" xlink:href="#p0" transform="matrix(16.686918 -51.357052 36.140148 11.742646 424.368427 657.825566)" fill="#e2d5d2"/><use href="#p0" xlink:href="#p0" transform="matrix(16.686918 -51.357052 36.140148 11.742646 442.909447 600.762175)" fill="#dcc2c6"/><use href="#p0" xlink:href="#p0" transform="matrix(16.686918 -51.357052 36.140148 11.742646 461.450467 543.698784)" fill="#e1d5d0"/><use href="#p0" xlink:href="#p0" transform="matrix(16.686918 -51.357052 36.140148 11.742646 479.991486 486.635393)" fill="#dfd3ce"/><use href="#p0" xlink:href="#p0" transform="matrix(16.686918 -51.357052 36.140148 11.742646 498.532506 429.572002)" fill="#d8ccc2"/><use href="#p0" xlink:href="#p0" transform="matrix(16.686918 -51.357052 36.140148 11.742646 517.073526 372.508611)" fill="#d9bdc1"/><use href="#p0" xlink:href="#p0" transform="matrix(16.686918 -51.357052 36.140148 11.742646 535.614545 315.44522)" fill="#dfc2c9"/><use href="#p0" xlink:href="#p0" transform="matrix(16.686918 -51.357052 36.140148 11.742646 554.155565 258.381829)" fill="#ddc7ca"/></g></g><g data-stamp-run="5"><use href="#p1" xlink:href="#p1" transform="matrix(154.672647 -476.033459 476.033459 154.672647 -18.483559 602.780268)" stroke="#8c8980"/><use href="#p2" xlink:href="#p2" transform="matrix(115.5072 0 0 115.5072 512 512)" fill="#a3a098"/><use href="#p2" xlink:href="#p2" transform="matrix(91.4432 0 0 91.4432 512 512)" fill="#d9c7c2"/><use href="#p2" xlink:href="#p2" transform="matrix(72.192 0 0 72.192 512 512)" fill="#b8b4ab"/><use href="#p2" xlink:href="#p2" transform="matrix(9 0 0 9 568.577857 434.12726)" fill="#e8b8c4"/><use href="#p2" xlink:href="#p2" transform="matrix(9 0 0 9 603.544896 541.74474)" fill="#e8b8c4"/><use href="#p2" xlink:href="#p2" transform="matrix(9 0 0 9 512 608.256)" fill="#e8b8c4"/><use href="#p2" xlink:href="#p2" transform="matrix(9 0 0 9 420.455104 541.74474)" fill="#e8b8c4"/><use href="#p2" xlink:href="#p2" transform="matrix(9 0 0 9 455.422143 434.12726)" fill="#e8b8c4"/></g></svg>
