<?xml version="1.0" encoding="UTF-8"?>
<svg xmlns="http://www.w3.org/2000/svg" xmlns:xlink="http://www.w3.org/1999/xlink" version="1.1" width="64" height="64" viewBox="0 0 64 64"><defs><symbol id="p0" data-stamp-kind="ellipse" overflow="visible"><path d="M1 0C1 0.552285 0.552285 1 0 1C-0.552285 1 -1 0.552285 -1 0C-1 -0.552285 -0.552285 -1 0 -1C0.552285 -1 1 -0.552285 1 0Z"/></symbol><symbol id="p1" data-stamp-kind="path" overflow="visible"><path d="M1 0.207572L0 0L0.305818 1"/></symbol></defs><g data-stamp-run="0"><use href="#p0" xlink:href="#p0" transform="matrix(30 0 0 30 32 32)" fill="#e9e3d6"/><use href="#p0" xlink:href="#p0" transform="matrix(2.224922 6.847607 -10.461622 3.399187 42.461622 29.600813)" fill="#ef9fbe"/><use href="#p1" xlink:href="#p1" transform="matrix(4.041837 0 0 3.804226 48.500983 25.535581)" fill="#fbe9ef"/><use href="#p0" xlink:href="#p0" transform="matrix(-5.824922 4.232054 -6.465638 -8.899187 38.465638 41.899187)" fill="#ef9fbe"/><use href="#p1" xlink:href="#p1" transform="matrix(1.248996 3.844016 -3.618034 1.175571 44.198169 46.386735)" fill="#fbe9ef"/><use href="#p0" xlink:href="#p0" transform="matrix(-5.824922 -4.232054 6.465638 -8.899187 25.534362 41.899187)" fill="#ef9fbe"/><use href="#p1" xlink:href="#p1" transform="matrix(-3.269915 2.375732 -2.236068 -3.077684 23.037899 48.737876)" fill="#fbe9ef"/><use href="#p0" xlink:href="#p0" transform="matrix(2.224922 -6.847607 10.461622 3.399187 21.538378 29.600813)" fill="#ef9fbe"/><use href="#p1" xlink:href="#p1" transform="matrix(-3.269915 -2.375732 2.236068 -3.077684 14.262949 29.339807)" fill="#fbe9ef"/><use href="#p0" xlink:href="#p0" transform="matrix(7.2 0 0 11 32 22)" fill="#ef9fbe"/><use href="#p1" xlink:href="#p1" transform="matrix(1.248996 -3.844016 3.618034 1.175571 30 15)" fill="#fbe9ef"/><use href="#p0" xlink:href="#p0" transform="matrix(4 0 0 4 32 33)" fill="#d9718f"/></g></svg>
